<?xml version="1.0"?>
<svg xmlns:rdf="http://www.w3.org/1999/02/22-rdf-syntax-ns#" xmlns="http://www.w3.org/2000/svg" xmlns:cc="http://web.resource.org/cc/" xmlns:xlink="http://www.w3.org/1999/xlink" xmlns:dc="http://purl.org/dc/elements/1.1/" xmlns:svg="http://www.w3.org/2000/svg" id="svg2412" viewBox="0 0 677.5 949.43" version="1.0">
  <defs id="defs2414">
    <linearGradient id="linearGradient4855">
      <stop id="stop4857" stop-color="#edff16" offset="0"/>
      <stop id="stop4859" stop-color="#edff16" stop-opacity="0" offset="1"/>
    </linearGradient>
    <radialGradient id="radialGradient2359" xlink:href="#linearGradient4855" gradientUnits="userSpaceOnUse" cy="1203.8" cx="1019.5" gradientTransform="matrix(1 0 0 1.3599 -389.38 -886.62)" r="166.01"/>
    <radialGradient id="radialGradient2362" xlink:href="#linearGradient4855" gradientUnits="userSpaceOnUse" cy="673.19" cx="636.29" gradientTransform="matrix(1 0 0 1.7649 -389.38 -968.28)" r="17.488"/>
    <radialGradient id="radialGradient2365" xlink:href="#linearGradient4855" gradientUnits="userSpaceOnUse" cy="777.25" cx="705.25" gradientTransform="matrix(1 0 0 1.1419 -389.38 -563.67)" r="147.9"/>
    <radialGradient id="radialGradient2368" xlink:href="#linearGradient4855" gradientUnits="userSpaceOnUse" cy="767.6" cx="361.1" gradientTransform="matrix(1 0 0 1.1387 -389.38 -559.81)" r="188.27"/>
    <radialGradient id="radialGradient2372" xlink:href="#linearGradient4855" gradientUnits="userSpaceOnUse" cy="1074.3" cx="793.47" gradientTransform="matrix(1 0 0 1.0077 -389.38 -461.62)" r="490.44"/>
    <radialGradient id="radialGradient2376" xlink:href="#linearGradient4855" gradientUnits="userSpaceOnUse" cy="-190.11" cx="1122.3" gradientTransform="matrix(1 0 0 2.0044 -389.38 -262.4)" r="69.293"/>
    <radialGradient id="radialGradient2379" xlink:href="#linearGradient4855" gradientUnits="userSpaceOnUse" cy="-451.87" cx="365.18" gradientTransform="matrix(1 0 0 1.4693 -389.38 -241.28)" r="6.6891"/>
    <radialGradient id="radialGradient2382" xlink:href="#linearGradient4855" gradientUnits="userSpaceOnUse" cy="-396.79" cx="379.71" gradientTransform="matrix(1 0 0 3.8769 -389.38 688.18)" r="10.194"/>
    <radialGradient id="radialGradient2385" xlink:href="#linearGradient4855" gradientUnits="userSpaceOnUse" cy="-88.201" cx="613.71" gradientTransform="matrix(1 0 0 1.2817 -389.38 -428.5)" r="14.785"/>
    <radialGradient id="radialGradient2388" xlink:href="#linearGradient4855" gradientUnits="userSpaceOnUse" cy="-245.52" cx="469.21" gradientTransform="matrix(1 0 0 2.4997 -389.38 -85.147)" r="36.146"/>
    <radialGradient id="radialGradient2391" xlink:href="#linearGradient4855" gradientUnits="userSpaceOnUse" cy="-227.57" cx="348.41" gradientTransform="matrix(1 0 0 2.6278 -389.38 -82.905)" r="46.955"/>
    <radialGradient id="radialGradient2394" xlink:href="#linearGradient4855" gradientUnits="userSpaceOnUse" cy="-242.65" cx="430.7" gradientTransform="matrix(1 0 0 2.4356 -389.38 -105)" r="68.604"/>
    <radialGradient id="radialGradient2397" xlink:href="#linearGradient4855" gradientUnits="userSpaceOnUse" cy="-43.607" cx="515.21" gradientTransform="matrix(1 0 0 2.5225 -389.38 -386.96)" r="38.353"/>
    <radialGradient id="radialGradient2400" xlink:href="#linearGradient4855" gradientUnits="userSpaceOnUse" cy="233.37" cx="503.12" gradientTransform="matrix(1 0 0 1.0145 -389.38 -456.74)" r="70.295"/>
    <radialGradient id="radialGradient2403" xlink:href="#linearGradient4855" gradientUnits="userSpaceOnUse" cy="133.25" cx="465.68" gradientTransform="matrix(1 0 0 .635 -389.38 -404.71)" r="93.579"/>
    <radialGradient id="radialGradient2406" xlink:href="#linearGradient4855" gradientUnits="userSpaceOnUse" cy="159.04" cx="367.35" gradientTransform="matrix(1 0 0 2.0631 -389.38 -622.43)" r="48.653"/>
    <radialGradient id="radialGradient2409" xlink:href="#linearGradient4855" gradientUnits="userSpaceOnUse" cy="7.8772" cx="357.15" gradientTransform="matrix(1 0 0 1.2285 -389.38 -455.15)" r="62.736"/>
    <radialGradient id="radialGradient2412" xlink:href="#linearGradient4855" gradientUnits="userSpaceOnUse" cy="99.534" cx="600.96" gradientTransform="matrix(1 0 0 1.8796 -389.38 -540.9)" r="70.648"/>
    <radialGradient id="radialGradient2415" xlink:href="#linearGradient4855" gradientUnits="userSpaceOnUse" cy="-142.97" cx="348.25" gradientTransform="matrix(1 0 0 1.275 -389.38 -414.03)" r="193.67"/>
    <radialGradient id="radialGradient2418" xlink:href="#linearGradient4855" gradientUnits="userSpaceOnUse" cy="100.05" cx="156.26" gradientTransform="matrix(1 0 0 1.1073 -389.38 -464.09)" r="143.27"/>
    <radialGradient id="radialGradient2430" xlink:href="#linearGradient4855" gradientUnits="userSpaceOnUse" cy="731.03" cx="681.92" gradientTransform="matrix(1 0 0 1.5353 -389.38 -844.64)" r="55.693"/>
    <radialGradient id="radialGradient2458" xlink:href="#linearGradient4855" gradientUnits="userSpaceOnUse" cy="573.06" cx="526" gradientTransform="matrix(1 0 0 .54880 -389.38 -194.78)" r="60.53"/>
    <radialGradient id="radialGradient2461" xlink:href="#linearGradient4855" gradientUnits="userSpaceOnUse" cy="475.39" cx="575.83" gradientTransform="matrix(1 0 0 .70883 -389.38 -314.93)" r="49.932"/>
    <radialGradient id="radialGradient2475" xlink:href="#linearGradient4855" gradientUnits="userSpaceOnUse" cy="-159.14" cx="706.41" gradientTransform="matrix(1 0 0 1.1023 -389.38 -437.07)" r="116.2"/>
    <radialGradient id="radialGradient2478" xlink:href="#linearGradient4855" gradientUnits="userSpaceOnUse" cy="90.034" cx="1102.6" gradientTransform="matrix(1 0 0 .62237 -389.38 -419.35)" r="94.369"/>
    <radialGradient id="radialGradient2490" xlink:href="#linearGradient4855" gradientUnits="userSpaceOnUse" cy="-215.38" cx="849.94" gradientTransform="matrix(1 0 0 .78708 -389.38 -499.21)" r="310.24"/>
    <radialGradient id="radialGradient2536" xlink:href="#linearGradient4855" gradientUnits="userSpaceOnUse" cy="188.66" cx="1038.2" gradientTransform="matrix(1 0 0 2.1029 -389.38 -661.43)" r="24.838"/>
  </defs>
  <g id="layer1" transform="translate(-23.534 -51.816)">
    <g id="g2543" transform="matrix(.46803 0 0 .46803 257.37 480.08)">
      <path id="path16083" style="color:#000000" d="m641.49-316.43c2.84 0.94 6.38 2.38 8.67 4.67 2.53 2.53 5.9 3.31 8.68 4.01 4.16 1.04 5.53 1.1 8.67 2.67 3.8 1.9 4.4 3.56 5.34 7.34 0.78 3.12 0.02 7.9-0.67 10.67-1.19 4.75-1.19 6.93-4 10.68-2.22 2.96-3.95 6.56-5.34 9.34-1.68 3.36-6.41 7.66-8.67 10.67-2.6 3.47-2.3 9.87-3.34 14.02-0.22 0.89-0.44 1.77-0.67 2.66-0.92 3.69-1.33 7.32-1.33 11.35v14.68c0 3.16-3.77-5.11-6.01-7.34-2.28-2.29-4.29-3.63-6.67-6.01-2.03-2.04-4.05-4.71-6-6.67-2.99-2.99-4.26-3.01-5.34-7.34-0.74-2.94 0.01-7.39 0.67-10.01 0.95-3.81 0.66-7.98 0.66-12.01 0-3.65 1.6-7.19 2.67-9.34 1.57-3.14 1.8-5.19 2.67-8.67 0.81-3.25 0.57-6.94 1.34-10.01 0.84-3.39 3.37-6.04 5.33-8.01 3.03-3.03 3.81-4.35 4.67-8.67 0.59-2.91-0.3-6.09-1.33-8.68z" fill-rule="evenodd" stroke="#d3271e" stroke-width="1px" fill="#f00"/>
      <path id="path4928" style="color:#000000" d="m641.49-316.43c2.84 0.94 6.38 2.38 8.67 4.67 2.53 2.53 5.9 3.31 8.68 4.01 4.16 1.04 5.53 1.1 8.67 2.67 3.8 1.9 4.4 3.56 5.34 7.34 0.78 3.12 0.02 7.9-0.67 10.67-1.19 4.75-1.19 6.93-4 10.68-2.22 2.96-3.95 6.56-5.34 9.34-1.68 3.36-6.41 7.66-8.67 10.67-2.6 3.47-2.3 9.87-3.34 14.02-0.22 0.89-0.44 1.77-0.67 2.66-0.92 3.69-1.33 7.32-1.33 11.35v14.68c0 3.16-3.77-5.11-6.01-7.34-2.28-2.29-4.29-3.63-6.67-6.01-2.03-2.04-4.05-4.71-6-6.67-2.99-2.99-4.26-3.01-5.34-7.34-0.74-2.94 0.01-7.39 0.67-10.01 0.95-3.81 0.66-7.98 0.66-12.01 0-3.65 1.6-7.19 2.67-9.34 1.57-3.14 1.8-5.19 2.67-8.67 0.81-3.25 0.57-6.94 1.34-10.01 0.84-3.39 3.37-6.04 5.33-8.01 3.03-3.03 3.81-4.35 4.67-8.67 0.59-2.91-0.3-6.09-1.33-8.68z" fill-rule="evenodd" stroke="#d3271e" stroke-width="1px" fill="url(#radialGradient2536)"/>
      <path id="path16075" style="color:#000000" d="m432.73-510.05c-12.2-2.65-23.99 9.98-34.94 6.87-6.31-10.77-10.54-23.23-22.23-29.27-14.46-4.82-13.95 12.17-12.9 21.66 2.26 7.3-1.87 21.67-10.07 11.84-4.19-10.39-1.15-22.26-1.46-33.28 1.26-10.96 4.68-26.28-5.61-33.72-7.91-7.88-30.55-8.83-32.37 5.16 1.09 14.97-21.28 17.94-17.57 33.41-1.39 13.17 4.32 25.7 3.59 38.79-9.18 9.19-20.85-2.62-30.21-6-9.47-8.82-20.65-15.28-29.86-24.24-6.74-10.81 11.07-2.44 15.03 0.5 12.89 6.11 23.69-7.9 21.25-20.18 1.72-8.72-4.72-23.92 6.51-27.18 6.18-14.21-16.67-19.09-15.56-33.47-1.38-10.16 4.59-20.32-5.88-27.8-6.66-11.2 2.21-26.61-10.54-34.86-5.28-13.71 18.68-15.49 16.42-29.3-7.94-7.11-23.63-6.05-31.83-1.52-7.08 5.52-20.03 2.9-24.12 14.07-4.41 3.2-11.73 13.21-8.04 1.68 7.65-8.66 12.49-19.49 23.36-25.27 9.54-5.4 19.5-12.32 31.25-10.92 12.44-0.45 24.28 4.4 36.86 2.68 10.99 2.33 14.79 15.54 13.12 25.38-5.36 10.42-18.94 17.09-18.82 29.91 0.84 10.1-3.42 26.64 11.52 26.51 4.11-11.29 6.24-22.82 15.47-31.59 13.61-2.01 18.79-16.59 25.61-27.76 10.96-1.71 21.9-15.3 9.02-23.65-9.52-8.22-19.54-18.66-33.47-15.89-10.19-1.72-23.42 3.84-31.5-3.68 4.85-10.19 20.83-1.09 28.82-8.71 12.23-3.3 19.78 8.72 30.93 9.76 9.43 4.92 16.38 12.85 23.85 20.55 6.45 8.91 10.63 18.91 16.25 27.99 2.73 9.01 5.01 22.6-9.38 19.43-10.94-0.74-20.57 7.13-26.81 15.22-4.61 11.4-18.41 18.96-18.4 31.47 4.26 11.46 18.82 11.37 26.95 18.92 10.57 5.95 18.05 16.09 25.63 24.18 4.55 9.66 16.08 13.5 19.76 24.12 6.77 8.19 13.36 16.53 18.93 25.63 2.51 5.86 10.2 6.95 11.44 12.56z" fill-rule="evenodd" stroke="#d3271e" stroke-width="1px" fill="#f00"/>
      <path id="path2996" d="m106.71 975.72l-5.95 22.9 118.03 6.78 5.07-5.2-25.1-11.27-92.05-13.21z" fill-rule="evenodd" stroke="#000" stroke-width="1px" fill="#f00"/>
      <path id="path16085" style="color:#000000" d="m620.81-356.46c4.66-1.88 9.05 8.52 14.31 10.33 4.27 7.66 11.65 12.07 18.52 16.99 6.21 6.21 13.68 11.36 22.55 12.71 7.21 3.05 14.74 5.1 22.12 7.74 14.92 4.83 30.82 3.68 46.26 3.27 7.33 0.05 14.64-0.53 21.18-4.18 7.81-2.14 15.7-4.09 23-7.72 5.49-1.21 18.15-5.03 16.99-9.63-10.28-0.82-20.57 0.23-30.56 2.71-9.82 0.71-19.67-0.65-29.52-0.19-16.67-0.36-34.11 1.82-49.84-5.14-8.68-2.24-16.95-5.47-23.92-11.29-6.53-5.21-15.34-11.65-12.53-21.3-0.57-10.16 12.75-3.66 18.65-4.31 12.12 0.4 24.29-0.77 36.37 0.18 8.37 2.16 17.01-0.13 25.5 0.44 6.92-1.8 15.23-0.24 20.89-5.43 5.52-3.9 6.12-10.7-1.88-7.21-13.91 1.73-28.06 0.83-42.02 2.37-15.04 0.99-30.59-0.27-44.54-6.29-7.9-1.5-13.51-8.16-21.16-10.29-6.64-4.3-13.29-9.69-18.23-15.58 5.86-2.29 12.88-0.32 19.19-0.44 7.91-1.28 14.17 3.72 21.39 5.5 8.21 0.81 16.5 0.58 24.67 1.39 8.03 1.28 16.18-0.58 24.28 0 10.69 0.64 22.49-1.07 30.23-9.13 3.34-3.67 2.77-9.78-2.92-5.29-10.05 6.09-22.32 3.9-33.49 4.41-11.96 0.09-24.36 0.7-35.57-4.26-8.56-1.48-16.98-3.57-25.48-5.32-8.97-0.66-17.87 0.57-26.19 3.99-6.87 6.79-5.25 17.75-5.59 26.61-1.31 7.99 4.07 18-3.55 23.85-2.07 3.57 2.02 6.83 0.89 10.51z" fill-rule="evenodd" stroke="#d3271e" stroke-width="1px" fill="#f00"/>
      <path id="path16079" style="color:#000000" d="m632.46-584.74c-23.93 0.07-28.18-50.32 3.2-40.26 23.07 0.74 41.13 16.88 58.55 29.28 0.33-15.5-27.14-31.29-39.77-43.91-17.03-21.68-44.07-26.49-65.89-41.17-16.59-3.24-35.4-35.8-5.95-25.16 14.91-7.87 42.1 16.6 47.11 0.92-24.19-10.95-43.69-31.07-69.58-39.13-15.21-11.58-75.07-6.49-52.54-35.43 22.33-3.34 47.65-4.11 67.23 7.32-6.25-20.98-47.12-24.39-68.37-32.83-18.52-0.18-63.6 1.81-56.5-24.34 8.41-5.99 33.92-14.62 10.12-19.84-30.74-8.32-59.75 11.38-90.62 5.2-15.59-22.18 29.84-33.7 46.86-35.49-21.9-11.57-52.68-5.01-74.3 4.39-15.87 6.76-55.1 18.99-61.3-1.38 9.16-21.87 40.62-25.17 53.37-35.17-23.39 3.37-53.6-1.85-69.37 20.54-12.78 19.33-39.71 23.37-57.59 21.73-5.71-13.12 19.24-37.7-6.88-24.26-16.28 10.3-19.7 35.51-42.57 35.46-14.8 21.25-5.46 56.34 25.61 44.6 20.9 3.47-16.67 14.59-20.12 18.52 8.2 28.97 53.55 8.02 77.3 14.18 27.5-10.43 56.13 13.38 85.54 4.35 22.77 12.55 48.98 17.53 72.27 27.67 21.5 13.85 35.15 36.75 52.6 54.43 12.67 22.53 29.75 41.52 40.25 65.41 17.68 17.95 17.12 46.96 26.99 66.78 2.88-17.67 35.8-13.95 16.21-2.03-2.51 23.82-24.69 29.39-45.94 32.22 13.93 6.01 38.78 5.21 32.47 27.44 20.39 9.4 56.27 41.39 73.64 16.92 10.88-28.93 48.77-14.7 60.38 6.87 12.42 7.59 16.62 43.17 30.34 17.16 27.47-9.94 50.39 8.15 68 26.75 5.47 14.06 27.56 14.11 9.61-0.92-19.04-20.07-30.16-45.51-48.46-66.06-15.49-19.25-31.14-37.32-48.06-55.15-11.32-8.22-21.62-19.83-33.84-25.61z" fill-rule="evenodd" stroke="#d3271e" stroke-width="1px" fill="#f00"/>
      <path id="path13999" style="color:#000000" d="m230.24-65.525l54.13-94.445 44.92-49.52 95.59-54.13 142.81-2.3 81.24 32.76s88.06 60.53 91.52 65.13c3.45 4.61 40.1 163.75 33.19 257.33-6.91 93.57-60.83 116.98-60.83 116.98l3.45 21.88 148.57 165.85-24.18 56.43-36.86 13.82s8.07 41.46 9.22 46.07 47.22 118.63 47.22 118.63 48.37 116.32 54.13 123.23 33.4 146.27 33.4 146.27l-3.46 40.31 3.46 43.76-36.86 1.15s-114.02 12.67-118.62 10.37c-4.61-2.31-126.69-13.82-126.69-13.82l-85.23-10.37-69.1-32.25 14.97 23.04-54.13 20.73-156.63 13.82-92.14 6.9-25.34-10.36-90.98-13.82-3.46 18.43s-82.92-14.97-80.616-19.58c2.303-4.6 66.799-302.9 66.799-302.9l31.097-111.71 79.47-145.12 46.07-59.89-33.4-17.27 97.89-118.63-33.4-20.73-9.21 4.61-49.53-18.43s4.61-6.91 0-11.52c-4.6-4.6-9.21-13.82-9.21-13.82l-48.37-39.16-8.06-34.548 8.06-41.461 59.89-59.889 9.21-51.827z" stroke="#1f1a17" stroke-width=".39957" fill="#00416d"/>
      <path id="path15170" fill-rule="evenodd" fill="#f00" d="m524.84 958.55l-31.56-44.01 107.12 58.13-18.27-1.66-69.75-34.88 12.46 22.42z"/>
      <path id="path15172" style="color:#000000" fill="#092235" d="m502.42 917.04l-4.16-97.99 14.95-107.11 31.55 143.65 96.32 120.4-40.68-4.98-38.2-17.44-54.8-28.23-4.98-8.3z"/>
      <path id="path1773" stroke-width="1px" stroke="#000" fill-rule="evenodd" d="m349.47-103.62l10.15 19.235 4.81 2.672 7.48-114.37 18.17-25.11-35.8 17.63-4.81 99.94z"/>
      <path id="path1775" stroke-width="1px" stroke="#000" fill-rule="evenodd" d="m521.55-88.126l39.54-69.474 50.24-15.5 62.52-2.13 44.36 15.49 11.76 18.71s-5.35-27.79-8.55-29.93c-3.21-2.14-26.72-18.7-26.72-18.7l-80.7 4.81-67.87 20.3-34.74 69.477 10.16 6.947z"/>
      <path id="path4856" style="color:#000000" d="m460.24-171.74l16.02 101.38-5.25-94.68-10.77-6.7z" fill-rule="evenodd" stroke="#000" stroke-width="1px"/>
      <path id="path1496" stroke-linejoin="round" style="color:#000000" d="m567.86 97.232c0.51 1.034 0.46 4.808 0.46 7.258 0 2.29 0.05 5.19 0.45 6.8 0.07 0.27 6.53 0 7.26 0h8.16c1.78 0 4.83-2.68 6.8-3.18 2.64-0.66 4.18-2.52 6.8-3.17 1.73-0.43 3.85-2.89 5.44-4.08 2.27-1.706 4.12-2.765 5.44-4.081 1.13-1.133 4.83-1.434 6.35-1.814 1.83-0.459 4.34-1.262 6.35-2.267 2.64-1.322 2.24-2.305 1.36-4.081-1-1.986-4.59-1.813-6.8-1.813-2.64 0-4.56-1.386-5.9-2.721-1.52-1.517-3.28-2.32-4.99-3.173-2.29-1.146-4-2.134-6.34-2.721-2.24-0.558-4.29-1.108-5.9-2.72-1.4-1.403-3.16-2.145-4.53-3.174-1.63-1.221-3.98-2.894-5.44-3.627-2.37-1.182-3.73-2.317-5.44-3.174-1.91-0.954-4.97-3.162-6.81-4.081-1.79-0.898-3.04-2.429-4.53-3.174-1.79-0.893-2.93-3.389-4.53-4.987-1.72-1.714-2.64-3.094-4.08-4.534-1.66-1.661-3.12-2.661-4.54-4.081-1.81-1.807-2.62-3.076-4.08-4.534-1.96-1.964-3.47-3.759-4.53-5.894-0.93-1.855-1.97-3.474-2.72-4.987-0.99-1.966-0.8-4.115-1.36-6.348-0.66-2.64-1.72-4.614-2.27-6.801-0.47-1.879-1.34-3.544-1.81-5.441-0.43-1.7081-1.61-4.1096-2.27-5.4408-0.97-1.9314-1.22-3.3397-2.27-5.4408-0.81-1.6186-0.9-4.6434-0.9-6.3477 0-2.1599-0.85-5.2107-1.36-7.2547-0.5-1.977 0-4.751 0-6.801v-21.763c0-2.783 0.17-5.652-0.46-8.161-0.61-2.459-1.83-4.595-2.27-6.348-0.49-1.963-2.4-3.897-3.17-5.441-0.91-1.822-1.91-2.843-3.17-4.534-1.35-1.795-2.72-1.873-2.72-4.987 0-1.366 0.94-3.765 1.36-5.441 0.4-1.609 1.88-3.312 2.72-4.988 1.11-2.219 1.94-3.761 3.17-4.987 1.67-1.671-1.28-2.61-2.72-4.534-1.15-1.529-3.86-2.33-4.99-3.174-1.78-1.334-3.22-1.61-5.44-2.72-2.34-1.172-1.81 0.911-2.72 2.72-0.69 1.39-2.49 2.496-3.63 3.627-1.57 1.576-2.89 1.987-4.08 3.174-1.41 1.418-2.97 3.066-4.08 4.534-1.15 1.544-2.48 2.267-4.98 2.267-2.64 0-4.39-0.907-6.8-0.907-1.76 0-4.29-0.453-6.35-0.453-2.44 0-4.63 0.478-6.35 0.907-2.11 0.527-3.88 2.52-4.99 3.627-1.61 1.616-2.94 2.944-4.08 4.081-1.78 1.777-2.52 2.974-4.53 4.987-1.54 1.538-2.7 2.698-4.54 4.534-1.77 1.771-3.23 2.779-4.98 4.534-1.53 1.524-3.25 1.881-4.99 3.627-1.65 1.652-2.85 3.307-4.08 4.534-1.34 1.34-2.84 1.936-4.08 3.174-1.41 1.403-3.33 2.719-4.54 3.627-2.43 1.827-3.01 1.814-6.34 1.814h-14.97c-2.96 0-4.79-0.357-6.8-1.36-1.96-0.979-2.96-1.147-4.99-3.174-1.58-1.584-2.67-2.671-4.08-4.081-1.05-1.058-2.12-3.346-2.72-4.534-0.91-1.826-3.25-2.873-4.08-4.534-1.13-2.268-3.15-3.595-4.53-5.441-1.33-1.767-4.04-3.482-5.44-4.534-2.15-1.614-2.85-3.917-4.99-4.987-1.49-0.748-2.79-2.786-3.63-3.627-1.59-1.59-2.62-3.075-4.08-4.534-1.98-1.981-2.52-1.927-3.17-4.534-0.5-1.978 0-4.751 0-6.801 0-2.061 0.45-3.854 0.45-6.346 0-1.56-3.88-3.3-4.53-3.63-2.16-1.08-4.19-0.91-6.8-0.91-2.56 0-4.94 0.66-6.35 1.36-1.74 0.87-6.76 6.208-8.16 7.259-1.6 1.198-3.12 3.252-4.08 4.534-1.59 2.112-3.13 9.329-3.63 11.335-0.42 1.667-2.12 10.29-2.72 12.695-0.52 2.095-0.04 4.707-0.45 6.348-0.5 1.977 0 4.751 0 6.801 0 1.867-1.17 4.152-1.82 5.441-0.69 1.395-0.54 4.88-0.9 6.347-0.5 1.977 0 4.751 0 6.801v7.255c0 2.494 0.02 4.88-0.46 7.254-0.59 2.963-1.56 5.333-2.26 8.161-0.64 2.543-1.36 4.595-1.36 7.2549 0 2.7548-0.46 5.1127-0.46 7.7079 0 3.1092-0.45 6.078-0.45 9.068v14.509c0 2.54 0.48 4.194 0.91 5.894 0.57 2.303 0.98 3.421 3.62 4.081 2.4 0.599 2.72-1.233 2.72-3.628 0-2.638-0.45-3.864-0.45-6.347v-20.403c0-2.2978 0.37-4.6487 0.91-6.8011 0.61-2.4622 0.47-4.6004 0.9-6.3476 0.57-2.2519 1.36-4.8359 1.36-7.2549 0-1.759 0.46-4.28 0.46-6.347 0-2.355 0.03-5.115 0.45-6.801 0.5-1.977 0-4.751 0-6.801v-6.801c0-1.76 0.45-4.28 0.45-6.348 0-2.738 0.45-4.044 0.91-5.894 0.48-1.916 1.26-4.58 1.81-6.801 0.62-2.464 1.36-3.064 1.36-5.895 0-2.076 4.27-2.981 5.28-2.728 1.39 0.346 8.42 1.353 11.01 1.353 2.27 0 3.66 2.736 5.93 2.736 2.35 0 4.73-0.066 6.8 0.453 2.76 0.69 3.41 0.238 4.99 1.814 1.39 1.385 2.01 2.459 3.17 3.627 1.41 1.403 1.93 2.492 2.72 4.08 0.78 1.549 2.12 4.036 3.18 5.441 1.71 2.287 3.14 4.016 4.08 5.895 0.51 1.03 3.54 2.885 4.53 3.627 1.82 1.361 2.94 2.603 4.99 3.627 2.84 1.419 4.03 2.468 6.35 3.627 1.98 0.994 4.14 1.715 6.35 2.267 2.19 0.549 4.19 0.454 6.34 0.454h7.26c1.9 0 4.58 0.453 6.8 0.453 2.51 0 4.98 0.114 7.25-0.453 2.98-0.744 4.03-1.756 5.9-3.628 1.52-1.52 2.29-2.055 4.53-3.173 2.49-1.245 3.28-2.317 4.99-3.174 2.62-1.31 4.63-2.819 6.8-4.988 1.7-1.702 2.3-3.747 2.72-5.44 0.42-1.681 2.28-3.188 3.17-4.081 1.8-1.797 3.31-2.857 4.99-4.534 1.56-1.56 4.33-2.908 5.9-4.081 1.92-1.446 3.63-1.816 5.44-2.72 1.43-0.715 5.16 0 6.8 0 2.41 0 3.96 0.764 6.35 1.36 2.61 0.654 5.21 0.736 7.7 1.36 2.5 0.624 3.95 1.548 4.99 3.627 0.89 1.77 3.56 3.558 5.44 5.441 2.16 2.158 2.35 3.705 4.54 5.895 1.89 1.897 2.19 5.168 2.72 7.254 0.54 2.17 1.85 4.676 2.26 6.348 0.55 2.177 0.91 4.532 0.91 6.801v6.801c0 2.593 0.45 3.981 0.45 6.801 0 2.228 0.06 4.78 0.46 6.347 0.64 2.5548 1.74 4.855 3.17 7.7083 0.83 1.6668 0.5 4.7102 0.91 6.3477 0.59 2.3732 1.81 3.4177 1.81 5.8942 0 2.0678 2.02 5.4008 2.72 6.8008 1.24 2.473 1.62 3.768 2.27 6.348 0.51 2.058 3.26 4.655 4.53 6.348 1.35 1.794 1.99 4.317 3.18 5.894 1.1 1.467 1.91 3.832 2.72 5.441 0.92 1.852 0.85 4.772 1.36 6.801 0.84 3.355 4.41 7.014 5.44 9.068 0.98 1.96 2.33 4.656 3.17 6.347 0.65 1.294 3.26 2.348 4.54 3.628 1.67 1.677 2.45 2.909 3.62 4.08 2.11 2.103 3.54 3.085 5.9 5.441 1.33 1.337 2.97 1.814 5.44 1.814h6.8c3.02 0 3.69 1.813 6.35 1.813 1.29 0 4.23 1.208 5.44 1.814 2.44 1.22 3.52 1.704 4.98 3.174 0.52 0.52-3.89 2.56-4.53 2.72-1.28 0.321-3.71 1.855-5.44 2.721-2.22 1.11-3.56 0.838-5.44 2.72-1.5 1.499-3.36 1.907-4.99 2.721-1.37 0.686-1.31 0.886-3.63 1.813z" stroke="#1f1a17" stroke-linecap="round" stroke-width=".39957" fill="#afa518"/>
      <path id="path4854" style="color:#000000" d="m610.62-22.538l14.22 112.59-17.78-8.297-8.29-77.035 11.85-27.258z" fill-rule="evenodd" stroke="#000" stroke-width="1px"/>
      <path id="path2371" style="color:#000000" fill-rule="evenodd" d="m310.18 361.28l70.95-42.05-63.07 247.01 185.26 23.64 38.1-223.35s-5.26 130.07 5.25 127.44c10.51-2.62 110.37-15.76 110.37-15.76s-42.05-177.37-35.48-169.49 122.19 161.6 122.19 161.6l61.75-11.82 34.16-18.39 26.28-48.62s-151.09-161.6-152.41-166.86c-1.31-5.25-6.57-31.53-6.57-31.53l-119.11-83.16-18.84-0.92s-1.01-5.34 6.54-11.829c7.54-6.492 23.65-14.145 23.65-14.145s-17.51 0.042-32.29-12.439c-14.78-12.482-32.06-37.794-32.06-37.794s-10.18-18.394-14.45-34.16c-4.27-15.767-0.66-16.424-2.63-28.905-1.97-12.482-5.26-21.022-5.26-21.022s-11.91-15.249-23.65-18.394c-11.73-3.144-12.39-0.467-23.28 5.816-10.9 6.283-8.47 10.119-20.3 19.316-11.82 9.197-13.06 11.538-27.2 11.909-14.13 0.371-16.29-1.07-27.79-7.967-11.49-6.898-15.73-15.935-15.73-15.935s-1.51-9.141-11.83-13.139c-10.31-3.997-29.43-2.85-29.43-2.85l-7.35 51.463-1.32 55.182s10.51 19.707 10.51 24.963c0 5.255-3.94 60.44-3.94 60.44l-14.45 55.18-47.3 24.96 70.95 30.22-39.42 49.93-88.03 60.43 97.23 21.03z"/>
      <path id="flowRoot4996" stroke-linejoin="round" style="color:#000000" d="m516.97 656.47v-5.36h12.3v10.99c-2.35 1.61-4.44 2.7-6.26 3.29-1.8 0.57-3.95 0.86-6.43 0.86-3.06 0-5.55-0.52-7.49-1.57-1.92-1.04-3.41-2.59-4.48-4.65-1.06-2.07-1.58-4.43-1.58-7.11 0-2.81 0.58-5.25 1.74-7.33s2.86-3.66 5.1-4.74c1.74-0.83 4.09-1.25 7.04-1.25 2.85 0 4.98 0.26 6.38 0.77 1.42 0.52 2.59 1.32 3.52 2.41 0.94 1.08 1.64 2.45 2.11 4.11l-7.68 1.38c-0.32-0.98-0.86-1.72-1.62-2.24-0.75-0.51-1.71-0.77-2.88-0.77-1.75 0-3.14 0.61-4.19 1.83-1.03 1.21-1.54 3.12-1.54 5.75 0 2.79 0.52 4.78 1.56 5.97 1.06 1.2 2.52 1.8 4.4 1.8 0.89 0 1.74-0.13 2.55-0.39 0.8-0.26 1.73-0.7 2.77-1.32v-2.43h-5.32m17.05-16.43h21.34v5.5h-13.36v4.1h12.39v5.25h-12.39v5.08h13.74v5.84h-21.72v-25.77m26.03 0h7.96v19.42h12.43v6.35h-20.39v-25.77m23.96 0h10.48l4.04 15.68 4.02-15.68h10.45v25.77h-6.51v-19.65l-5.04 19.65h-5.89l-5.03-19.65v19.65h-6.52v-25.77m34.37 0h7.98v25.77h-7.98v-25.77" transform="matrix(.98557 .16924 -.16924 .98557 8.611 -374.85)" stroke="#1f1a17" stroke-linecap="round" stroke-width=".39957" fill="#fff"/>
      <path id="path5004" stroke-linejoin="round" style="color:#000000" d="m438.31 387.94c0.23 1.13 0.45 2.27 0.68 3.4 0.31 1.55 0 3.51 0 5.09 0 2.11-0.07 3.54-0.68 4.76-0.71 1.43-3.42 1.7-4.76 1.7-1.06 0-2.74-1.55-3.39-2.04-1.35-1.01-1.94-2.33-3.4-3.06-1.9-0.95-2.61-0.22-3.4 1.36-0.81 1.63-0.34 4.57-0.34 6.46 0 2.74 0.74 4.87 1.7 6.79 0.8 1.6 2.06 3.77 3.06 5.1 0.82 1.09 3.89 1.36 5.43 1.36 1.62 0 1.71 4.44 2.04 5.77 0.12 0.45 0.23 0.91 0.34 1.36 0.59 2.34 1.81 2.6 3.4 3.4 1.54 0.77 3.93 0.68 5.77 0.68 2.05 0 3.91 0.66 4.42-1.36 0.57-2.26 0.47-3.91 1.02-6.12 0.44-1.74 0.77-3.23 1.36-4.41 0.98-1.96 1.51-2.04 4.08-2.04h5.43c2.34 0 1.08 2.47 0.68 4.07-0.42 1.68-0.02 4.15-0.34 5.44-0.38 1.53-1.63 2.31-2.72 3.4l-4.75 4.75c-1.72 1.72-3.19 3.53-5.1 5.44-0.83 0.83-3.22 1.56-4.75 2.72-1.65 1.23-2.9 0.12-4.08 1.69-1.4 1.87 4.03 2.36 6.11 3.4 1.61 0.8 3.58 1.02 5.44 1.02h5.77c2.02 0 4.64 0.03 6.12-0.34 1.72-0.43 2.54-2.58 4.08-3.74 1.47-1.11 2.94-2.27 4.07-3.39 1.42-1.43 2.17-2.51 3.4-3.74 1.14-1.14 1.82-2.96 2.38-4.08 0.72-1.44 1.33-3.64 1.7-5.09 0.47-1.89 0.24-4.02 0.68-5.78 0.46-1.87 3.43-2.38 4.75-2.71 1.73-0.44 1.36 2.54 1.36 3.73 0 1.94 5.44-0.1 5.44-2.04 0-1.78 0.67-3.52 0.67-5.43 0-2.83-0.86-3.14-1.35-5.1-0.33-1.32-2.71-2.82-3.4-3.73-1.38-1.84-1.71-2.7-0.68-4.76 0.85-1.69-0.36-5.14-1.02-6.45-0.88-1.76-2.33-3.35-3.4-4.42-1.4-1.41-2.49-2.77-4.41-3.74-1.77-0.88-2.27-1.35-4.08 0-1.34 1.01-1.7 4.59-1.7 6.12 0 1.05-1.06 3.62-1.36 5.09-0.35 1.79 0 3.95 0 5.78 0 0.62-4.97 0.34-5.43 0.34h-5.44c-1.86 0-3.27-0.55-4.07-1.36-0.3-0.3 0.68-6.27 0.68-7.47 0-1.75-2.65-3.33-3.4-4.08-1.56-1.56-3.04-3.47-4.76-4.76-1.47-1.1-2.16-2.38-4.41-2.38-1.42 0-2.65 1.5-3.74 2.04-0.65 0.33-1.05 1.04-1.7 1.36z" stroke="#1f1a17" stroke-linecap="round" stroke-width=".39957" fill="#fff"/>
      <path id="path5006" stroke-linejoin="round" style="color:#000000" d="m426.08 449.77c-0.57 0.28 3.59 3.93 4.42 4.76 1.34 1.34 1.19 3.08 1.7 5.09 0.63 2.56-1.21 1.94-3.06 1.02-1.24-0.62-3.66-0.34-5.44-0.34-2.6 0-2.53 2.09-2.04 4.08 0.37 1.47 2.04 4.63 2.72 5.77 1.18 1.96 1.84 2.67 3.06 5.1 0.23 0.45 0.45 0.9 0.68 1.36 1 2 3.79 2.91 6.11 4.07 1.79 0.9 3.5 0.25 4.42-0.68 1.24-1.23 2.32-1.64 3.4-2.71 1.38-1.38 2.2-3.05 2.71-5.1 0.33-1.31-1.21-3.26-2.03-4.08-1.66-1.65-2.94-2.5-0.68-4.75 1.1-1.1 3.7 0 5.09 0 2.01 0 2.09-2.25 2.38-3.4 0.38-1.51-0.08-3.71-0.34-4.76-0.37-1.47-2.89-2.55-4.08-3.73-1.59-1.6-3.32-2.75-5.09-4.08-1.74-1.3-3.85-1.02-6.12-1.02h-5.43c-4.27 0-2.96 0.52-2.38 3.4z" stroke="#1f1a17" stroke-linecap="round" stroke-width=".39957" fill="#fff"/>
      <path id="path5008" stroke-linejoin="round" style="color:#000000" d="m476.02 460.98c-0.56 0-4.58-0.34-7.14-0.34-2.16 0-3.72 0.68-5.09 1.02-1.39 0.35 0.32 5.04 0.34 5.09 0.72 1.82 1.24 2.86 3.4 3.4 2.57 0.65 5.45 2.04 8.15 2.72 1.74 0.43 4.06 0 5.43-0.68 1.76-0.88 1.38-3.36 0.68-4.76-0.93-1.85-2.16-2.55-3.73-3.73-1.28-0.96-1.34-0.96-2.04-2.72z" stroke="#1f1a17" stroke-linecap="round" stroke-width=".39957" fill="#fff"/>
      <path id="path1350" stroke-width="1px" stroke="#000" fill-rule="evenodd" d="m109.39 672.45l-28.412 211.19 5.682 60.61 15.15-89.97s8.53-120.28 9.47-126.91c0.95-6.62-2.84-56.82-1.89-54.92z"/>
      <path id="path2229" stroke-width="1px" stroke="#000" fill-rule="evenodd" d="m293.12 597.63s-31.25 79.55-29.36 86.18 12.31 76.71 12.31 76.71l17.05-162.89z"/>
      <path id="path3104" stroke-width="1px" stroke="#000" fill-rule="evenodd" d="m714.56 501.97c0 3.79 7.58 106.08 7.58 106.08l90.92 105.12-65.35-119.33-6.63-62.51-26.52-29.36z"/>
      <path id="path3979" stroke-width="1px" stroke="#000" fill-rule="evenodd" d="m340.65-187.61l-14.22 1.19-10.67 27.26 14.22 59.252 4.74-20.152-8.29-33.18 14.22-34.37z"/>
      <path id="path4858" style="color:#000000" d="m708.77 63.737c2.83 0 34.66-1.415 34.66-1.415l23.35 24.052 3.53 19.806-9.19 31.13-0.71-21.93 2.83-17.687-13.44-14.856-10.61-12.734-30.42-6.366z" fill-rule="evenodd" stroke="#000" stroke-width="1px"/>
      <path id="path1537" style="color:#000000" fill="#00416d" d="m587.07 109.33v26.79l15.11 77.48 29.23 25.33s8.28 1.95 11.69 1.95c3.42 0 69.19-35.57 69.19-35.57l-3.41-16.08-121.81-79.9z"/>
      <path id="path4861" stroke-linejoin="round" style="color:#000000" d="m588.2 133.67l39.89 68.07-22.98 10.41 22.98 21.68 14.31 6.94-11.28 4.76-22.97-9.1-18.65-22.55s10.41-40.32 10.41-42.05c0-1.74-11.28-38.59-11.71-38.16z" stroke="#1f1a17" stroke-linecap="round" stroke-width=".39957" fill="#afa518"/>
      <path id="path4863" stroke-linejoin="round" style="color:#000000" d="m587.77 134.54l-131.38 39.02s-0.86 9.54 0.87 9.54c1.74 0 15.61 1.3 15.61 1.3l114.9-49.86z" stroke="#1f1a17" stroke-linecap="round" stroke-width=".39957" fill="#afa518"/>
      <path id="path4865" style="color:#000000" d="m462.66 256.22l-17.31-71.47 142.85-51.08 13.44 38.16-10.4 42.49-128.58 41.9z" stroke="#1f1a17" stroke-width=".39957" fill="#00416d"/>
      <path id="path9316" style="color:#000000" fill="#98a2a8" d="m367.5 194.33s-7.15-27.75-0.57-28.64 15.47-5.65 11.4 11.4c-3.71 16.27 6.99 10.77-3.39 20.35-10.82 11.28-31 17.74-40.78 7.55-9-9.78 17.37-7.41 17.37-7.41l15.97-3.25z"/>
      <path id="path16051" style="color:#000000" d="m-1.6995-357.91c-7.0267 5.65 8.1888 6.43 11.395 9.63 6.5035 2.41 8.3505 10.84 1.6875 14.51-3.4259 3.66-6.0153 8.09-9.3114 11.94-0.5532 4.37-8.1806 2.11-6.8098 8.49-5.3058 0.24-3.4867 7.23-9.7668 7.59-7.185 6.08 9.4172 8.03 11.93 4.74-0.5109-6.34 9.0323-4.05 8.0874-10.41 6.4896 1.25 4.8246-8.82 11.02-9.77 1.401-8.74 11.136-6.77 17.179-4.18 8.077 0.57 1.884 11.9 3.839 17.73-1.432 5.71 2.256 15.19-4.384 17.81-5.284 3.6-1.788 12.51-2.485 18.24 2.711 7.72 10.616 0.97 7.671-5.05 2.317-5.98 7.462-11.03 5.781-18.47-0.165-7 10.636-7.2 10.52-15.2 0.172-6.93 11.839-2.57 16.878-3.04 4.41 6.07 5.013 13.13 5.014 20.77 0.548 7.14-1.66 15.21 6.484 18.46 4.39 3.5-1.208 16.79 7.719 11.82 3.012-5.88-1.264-13.04 0.221-19.57 0.976-9.93-0.601-20.14 0.827-30.01 5.125-5.08 12.674-0.7 18.844-2.35 7.26-1.51 2.98 9.69 10.74 9.17-0.45 6.87 9 4.11 8.24 11.09 7.01 6.16 11.53-4.28 5.85-9.22-5.58-3.73-5.16-10.93-11.53-12.99-0.58-5.75-9.41-6.43-6.28-13.19-4.09-8.62 7.81-11.65 14.28-10.3 8.85 0.52 17.61-1.12 26.43-0.61 5.9 3.41 17.07-4.92 5.08-4.67-8.49 0.69-11.65-9.79-19.87-7.9-9.23 0.26-10.69-15.78-0.18-13.41 1.41-2.92 0.85-8.15 6.63-6.5 3.13-7.11-10.11-6.43-15.05-6.16-7.76 0.28-10.76 8.48-10.07 15.19 1.21 7.32-7.68 6.22-11.34 9.87-5.82 1.02-15.384-2.41-18.563 3.04 0.266 4.5-5.101 6.32-6.53 10.02-6.313-2.14-6.931 7.86-12.185 3.66-8.856-1.69-3.899 12.33-12.822 10.18-8.653 0.77-12.088-9.47-20.411-10.09-5.288 2.51-17.065 3.49-14.638-5.66-2.367-6.66-8.038-13.35-15.011-15.6-4.6342-0.55-11.028-1.65-15.11 0.4z" fill-rule="evenodd" stroke="#d3271e" stroke-width="1px" fill="#f00"/>
      <path id="path16053" style="color:#000000" d="m68.197-276.21c-9.118 1.25-3.978 13.5-5.028 19.74 0.298 6.85 8.222 10.37 7.69 18.12 1.454 10.71-0.016 21.57 0.2 32.34-1.439 6.9-8.469 11.44-9.4 18.66 1.73 7.29-5.493 11.55-5.295 18.41-0.307 5.77-7.814 5.78-7.162 11.81-8.752-0.88-4.927 10.75 2.176 7.86 7.157-1.06 9.841-9.46 15.977-12.81 3.364-6.14 0.541-14.54 6.758-19.18 5.766-4.4 5.249-12.32 10.378-17.14 3.226-6.06 8.941-9.31 14.604-12.82 6.485-4.93 15.325-1.65 22.865-2.58 7.12-0.38 14.43-0.27 20.35 4.33 4.45 4.41 10.13 7.07 14.91 11.03 5.87 5.16 13.95 7.87 21.56 8.35 7.6 1.12 4-6.7-0.04-8.56-3.13-5.26-10.09-7.01-12.97-12.7-3.94-5.4-8.7-9.99-13.76-14.38-4.78-5.36-9.12-11.04-13.88-16.31-5.31-4.55-3.36-12.41-9.1-16.59 0.49-7.35-7.24-11.77-5.23-19.65 0.29-5.62-4.19-14.69-10.84-11.68-7.99 3.47 2.65 11.28 3.8 16.49 0.97 7.34-0.4 14.92 3.85 21.45 1.31 5.52 2.86 17.58-5.68 17.22-7.61 0.42-15.34 0.52-22.953 0.35-7.101-1.49-9.453-8.14-14.713-12.06-1.583-6.33 2.949-16.41-6.957-17.08-1.603-3.41 3.27-11.74-2.11-12.62z" fill-rule="evenodd" stroke="#d3271e" stroke-width="1px" fill="#f00"/>
      <path id="path16055" style="color:#000000" d="m-68.603-392.36c-0.675 5.67-5.294 18.04 4.537 16.79 3.888 0.54 2.586 5.95 7.338 5.52 0.646 5.87 0.782 11.74 6.162 15.46 2.465 8.53 1.433 17.74 1.927 26.55-0.15 8.96 0.375 17.95-0.454 26.88-10.344 3.67-3.11 15.63-8.621 21.78-6.724 7.94-0.971 19.91-8.868 27.16-2.687 7.53-2.508 16.49 2.094 23.18 2.527 7.53 4.471 14.85 10.877 19.72 5.324 4.92 8.404 14.37 16.839 14.39 7.67 0.49 15.261 0.23 22.944 0.03 7.2026-2.1 11.052-9.52 16.417-14.3 3.3985-5.24 2.673-12.06 8.906-15.44 0.52-8.36-1.7218-16.97 1.426-25.07-0.569-6.2 1.895-9.55 3.936-14.59 0.634-7.88 0.258-15.99 1.952-23.75-0.49-7.48 7.764-11.96 7.233-19.77-1.391-6.26-10.486-5.29-8.043 1.64 0.485 6.69-10.098 5.63-7.374 13.51 1.679 7.43-1.0757 13.77-2.624 20.33 0.7904 8.61-6.2723 15.38-5.5761 23.95-1.2905 6.69 3.3216 17.01-3.9021 20.82-0.6347 4.11-1.1686 8.12-6.2661 8.2-0.1549 6.61-4.5007 11.51-11.645 11.32-7.213-0.95-16.545 2.48-22.223-2.65-4.089-7.13-12.684-11.42-13.037-20.47-2.357-8.61 1.723-17.67 3.295-25.94 6.16-5.02 3.028-14.86 4.413-22.12 8.382-4.89 6.357-15.02 7.38-22.96 5.433-4.52 5.225-10.85 5.608-17.26 0.549-7.92 1.82-16.44-0.856-24.05-3.085-8.36-5.146-17.4-11.476-23.96-1.551-8.04-8.394-12.81-11.644-19.35-1.765-2.31-8.617-12.12-10.675-5.55z" fill-rule="evenodd" stroke="#d3271e" stroke-width="1px" fill="#f00"/>
      <path id="path16057" style="color:#000000" d="m-90.41-521.55c5.345 4.37 9.231 10.08 13.574 15.35 5.839 3.56 8.188 10.57 14.783 13.25 4.83 3.02 9.54 6.26 14.6 8.77 6.745 1.88 11.464 7.78 18.274 9.79 7.556 3.92 15.541 7.45 22.15 12.87 5.0005 5.56 8.1494 12.28 10.533 19.27 4.2357 5.52 5.2443 12.33 8.14 18.61 1.306 7.95 8.947 12.2 12.635 18.77 3.803 5.46 5.947 11.63 5.122 18.6 0.58 5.29 1.736 11.84-2.278 16.11-7.855 4.77-11.331-4.63-14.899-9.71-4.5561-5.66-10.052-10.38-15.592-15.01-5.5446-3.56-10.399-8.01-16.608-10.48-4.791-4.42-9.467-8.97-14.14-13.49-4.015-5.47-10.589-8.55-13.693-14.84-3.03-6.88-14.85-2.83-14.365-12.23-1.073-9.76 16.318-7.14 15.092 2.03 2.885 5.47 9.027 7.33 13.346 11.35 5.212 4.31 11.4 7.22 17.657 9.8 4.47 1.51 15.045 4.98 16.651-0.62-1.8135-6.72-8.5913-11.88-13.757-16.59-7.006-4.81-11.632-12.6-19.577-16.11-7.385-3.92-13.298-9.79-19.292-15.5-5.691-3.11-10.004-7.86-15.049-11.8-5.896-5.11-11.091-11.28-17.221-16.13-3.596-5.96-11.853-10.72-9.89-18.64 0.178-1.4 1.91-5.13 3.804-3.42z" fill-rule="evenodd" stroke="#d3271e" stroke-width="1px" fill="#f00"/>
      <path id="path16059" style="color:#000000" d="m146.56-593.06c3.94 5.41 1.02 14.78 1.9 21.68 1.87 7.35-10.56 7.89-6.59 16.26 1.32 5.19-0.64 9.05-4.14 12.4 2.62 8.02-2.17 13.63-6.54 19.42-0.13 8.94-10.51 12.87-7.78 22.43-0.07 5.37-8.65 6.8-5.38 13.55-0.1 7.25-10.83 8.18-7.23 16.55 1.21 6.59-2.24 15.23 0.76 20.35 10.15 2.61 13.92-8.3 15.56-15.83 6.17-4.7 12.31-11.03 12.59-19.17 4.88-6.8 0.12-17.87 9.13-21.8 4.21-5.47 0.52-13.81 7.14-18.47 1.95-2.27 6.06-14.58 6.6-5.25 2.35 8.13 1.76 17.26-6.1 21.78-0.38 6.28-0.02 12.61-6.78 15.59-0.49 7.69 1.81 16.69-5.31 22.14-3.99 5.24 1.99 13.49-4.8 16.51-2.61 7.58-1.86 16.73-6.75 23.18-4.78 5.63 0.68 17.46-9.1 19.74-0.98 7.21-8.39 11.94-15.57 11.04-7-1.41-9.487-9.1-11.233-15.14-1.371-9.15 2.683-17.9 1.695-27.09 0.641-6.95-3.628-12.9-8.368-17.5-4.439-5.91-1.27-14.04-2.284-20.88-0.529-9.02 9.768-12.75 14.2-19.38 5.69-6.24 9.7-13.63 15.33-19.88 2.88-8.26 7.91-16.05 8.13-25.06 1.53-7.7 5.21-14.41 7.15-22 4.45-6 10.48-11.99 11.11-19.84-0.2-2.19 0.14-4.72 2.66-5.33z" fill-rule="evenodd" stroke="#d3271e" stroke-width="1px" fill="#f00"/>
      <path id="path16063" style="color:#000000" d="m-137.05-582.22c16.07 15.14 33.68 28.96 51.151 42.6 17.788 11.58 32.937 25.72 50.114 37.84 19.623 13.02 43.752 20.37 55.121 42.05 17.063 15.19 3.616 42.9 20.207 56.13 17.576 8.25 19.556 29.63 23.271 43.04-7.318-3.55-27.634-8.04-20.293 8.57 21.393 4.93 44.497 1.69 57.659-17.91 10.18-17.64-32.805-17.87-17.556-35.52 12.456-19.08-2.533-36.35-5.308-55.33 0.458-20.3-3.657-42.43 10.208-59.41 6.613-21.86 25.726-35.79 34.956-56.61 16.28-18.45 14.34-43.37 18.53-65.88 0.62-19.25 11.04-35.47 7.76-55.12 6.51-31.41 1.61-63.67 1.73-95.49-9.19-15.48-8.9-36.37-18.88-49.46-7.87 18.8 6.99 39.49 3.68 59.61 1.62 21.67 5.7 43.15 4.08 65.13 3.5 20.82-10.83 37.3-11.03 57.36-3.08 18.83-19.13 12.8-17.58-3.77-15.899-19.64-2.53 25.75-13.855 30.31 2.679 19.88-16.852 32.07-28.173 46.14-12.88 14.08 1.265 35.81-10.841 51.42 3.082 17.3-15.857 48.64-34.399 32-19.725-9.56-31.306-27.54-41.721-45.03-14.068-15.82-38.961-13.49-53.905-28.18-15.532-12.36-28.476-30.37-28.076-51.06-16.46-1.85 4.474 46.51-18.18 26.38-18.5-14.81-33.16-34.36-46.07-54.13-9.13-23.85-27.87-43.01-33.43-68.18-7.65-19.86-19.79-39.23-23.89-59.75-2.19-16.54-3.11-34.22-6.74-50.08-12.14 15.6-5.8 41.95 1.06 59.65 3.14 22.73 15.9 42.92 17.73 66.12 10.58 19.17 21.52 38.45 29.8 59.19 5.96 18.93 18.56 35.33 28.99 52.26 4.64 4.84 8.3 11.75 13.88 15.11z" fill-rule="evenodd" stroke="#d3271e" stroke-width="1px" fill="#f00"/>
      <path id="path16065" style="color:#000000" d="m112.04-787.73c3.99 5.32 2.54 12.57 3.37 18.82 1.73 7.48-7.43 9.65-11.98 13.46-7.228 2.91-7.385 11.64-11.998 16.94-3.293 6.68-10.58 10.92-11.676 18.78-2.823 6.16-4.425 12.98-8.547 18.33-0.866 5.83 1.864 12.84-2.623 17.61-4.67 6.3-6.506 14.18-7.599 21.81-3.151 6.7-3.461 14.11-3.182 21.39-0.702 8.85-0.138 17.76-0.657 26.61-0.089 6.94-7.269 5.11-4.938-1.16 0.109-5.73 0.324-11.51-1.992-16.88-3.234-5.77-5.756-11.78-5.934-18.53 0.268-7.77-0.244-15.61 1.003-23.32 0.028-7.69 0.124-15.41 0.897-23.05 3.172-4.69 7.879-8.87 8.567-14.87-0.597-6.89 2.083-13.41 2.408-20.22 2.093-6.24 6.072-11.82 11.406-15.7 3.635-6.7 10.511-11.17 13.555-18.12-0.158-8.07 7.516-11.1 11.788-16.62 2.845-6.36 10.882-7.1 16.892-5.75l1.24 0.47z" fill-rule="evenodd" stroke="#d3271e" stroke-width="1px" fill="#f00"/>
      <path id="path16067" style="color:#000000" d="m-30.166-909.41c0.13 1.64 0.25 3.29 0.659 4.89 0.262 1.41 0.121 2.88 0.498 4.27 0.666 1.25 2.026 1.91 3.205 2.59 1.907 1.16 4.161 1.38 6.308 1.77 1.009-0.01 1.229-1.26 1.365-2.04 0.301-1.84 0.019-3.71-0.561-5.46-0.591-2.1-1.064-4.26-2.177-6.17-0.703-1.52-2.175-2.42-3.316-3.58-1.284-1.12-3.152-1.81-4.812-1.15-1.029 0.44-1.216 1.68-1.366 2.66-0.089 0.75 0.053 1.49 0.197 2.22z" fill-rule="evenodd" stroke="#d3271e" stroke-width="1px" fill="#f00"/>
      <path id="path16069" style="color:#000000" d="m-15.581-887.54c-1.462 4.16-0.435 8.54-0.405 12.8-0.126 2.85 0.731 5.51 1.948 8.05 0.739 4.33 0.166 8.77 0.347 13.15 0.015 4.16-0.461 8.3-0.27 12.46-0.502 3.64-0.587 7.29-0.802 10.92-1.543 2.64-1.332 6.63-4.198 8.27-0.921 2.52-0.11 5.45 0.4 8.03 1.111 3.19 6.575 3.87 8.461 1.15 2.1523-3.14 1.3579-7.18 1.5409-10.77 0.0479-3.37-0.0911-6.75 0.0692-10.12 1.3172-3.53 6.0687-3.62 7.6855-6.79 0.93249-2.9 0.92264-5.95 0.62312-8.96 0.10267-4.07 0.46924-8.68-2.5165-11.94-1.5878-2.76-4.1033-4.8-5.6498-7.59-1.4361-2.34-0.5582-5.3-0.5671-7.9 0.2711-3.4-0.1415-6.9-1.3083-10.09-1.062-1.96-4.294-3.67-5.358-0.67z" fill-rule="evenodd" stroke="#d3271e" stroke-width="1px" fill="#f00"/>
      <path id="path16071" style="color:#000000" d="m-58.255-627.98c-7.837-5.52-9.391-15.61-16.477-21.59-1.688-8.34-1.077-16.55-7.29-22.98-0.611-9.11-6.138-17.1-5.402-26.47 0.227-10.33-0.235-20.83 0.81-31.06 7.947-4.76 3.829-15.08 9.612-21.8 4.501-9.03 15.129-12.9 17.397-22.76 6.608-6.38 16.184-7.63 18.817-17.08 5.857-1.47 9.106-5.23 11.162-10.74 8.773-6.16 11.348 12.6 1.081 10.53-6.035 6.74-12.093 13.18-18.239 19.67-7.54 5.52-13.089 13.47-19.193 20.49-6.484 4.8-11.761 13.25-9.833 22.23 2.988 9.95-7.146 18.6-0.81 27.28 3.971 7.42-1.238 17.06 4.008 23.89 6.828 6.94 2.38 18.39 10.576 24.73 6.426 6.33 6.747 16.01 13.051 22.34 2.905 8.63 12.135 12.05 16.605 19.65 3.577 8.34 9.039 16.67 18.149 19.32 5.6179 5.87 7.1496 15.67 15.346 19.49 2.6265 6.01 8.2588 18.85-4.0435 13.88-5.1764-8.56-10.094-16.47-16.642-24.24-6.171-6.49-13.421-11.97-19.509-18.86-4.11-8.51-10.935-16.06-18.095-22.41l-0.659-1.58-0.422-1.93z" fill-rule="evenodd" stroke="#d3271e" stroke-width="1px" fill="#f00"/>
      <path id="path16073" style="color:#000000" d="m70.493-856.63c-0.938 11.38 0.364 25.94 11.251 31.82 11.627 4.12 16.467-6.41 22.896-12.95 9.86 2.3 2.47 20.25 4.38 29.28-7.2 9.12-21.901 11.64-28.587 23.09-9.871 6.2-15.022 17.23-24.847 23.42-14.595 6.87-14.157 23.42-18.412 36.6-0.787 12.24-12.421 20.2-8.42 33.65-2.705 12.36-6.262 23.94-3.726 37.08-1.644 13.56 1.775 26.01 6.969 37.89 0.962 10.93 1.783 21.79 2.956 32.68 0.823 11.44 0.874 22.94 2.637 34.22 4.621 9.94-2.923 28.5-14.15 17.52-1.685-12.04-8.042 7.67-11.649-4.62-6.2375-5.47-7.3619-15.79 2.363-7.37 10.783-4.91 11.47-21.02 2.886-28.66-5.611-9.42-14.142-17.38-15.035-28.98-2.4586-11.57-11.761-20.06-12.835-32.14-2.142-12.56-10.541-22.35-13.335-34.7-4.189-12.46-2.839-26.4 1.197-38.6 0.049 12.84 7.129 24.49 10.404 36.78 3.8057 9.16 27.768 16.89 25.856 1.5-0.089-12.07-0.246-24.07-1.984-36.03-2.0787-11.49-11.346-21.05-10.808-33.32 0.08843-9.86-4.2528-20.86 1.206-29.92 9.978-0.01 12.656 19.08 26.025 13.44 4.355-11.7 7.438-24.85 9.218-37.54-0.998-13.18 11.523-21.56 8.968-35.41 5.504-10.89 14.359-18.82 17.145-31.07 3.99-4.11 11.135-6.46 7.431 2.34z" fill-rule="evenodd" stroke="#d3271e" stroke-width="1px" fill="#f00"/>
      <path id="path16077" style="color:#000000" d="m211.72-558.62c-1.66-0.76-1.49 2.36-1.66 3.45-0.28 1.71 0.61 3.52 2.31 4.08 1.52 0.93 3.76 1.3 4.56 3.04 0.47 2.72-0.13 5.52 0.3 8.26 0.04 2.5 3.26 1.51 4.87 1.95 0.99 1.59 1.21 3.54 1.87 5.28 0.28 1.67-0.15 3.84 1.65 4.83 1.3 0.38 3.24 0.29 2.85 2.28-0.1 1.91 2.28 2.14 3.69 2.29 1.95 0.4 3.74-0.52 5.23-1.69 1.99-0.9 1.09-3.51 0.74-5.16-0.62-2.21-2.46-3.76-3.84-5.5-2.71-2.56-5.43-5.1-8.23-7.56-1.66-1.49-3.31-2.99-4.96-4.49-0.91-1.73-0.18-3.79-0.35-5.65 0.17-1.85-1.3-3.09-2.51-4.23-1.27-0.97-2.43-2.92-4.26-2.48-0.85 0.24-1.58 0.76-2.26 1.3z" fill-rule="evenodd" stroke="#d3271e" stroke-width="1px" fill="#f00"/>
      <path id="path4924" style="color:#000000" d="m632.46-584.74c-23.93 0.07-28.18-50.32 3.2-40.26 23.07 0.74 41.13 16.88 58.55 29.28 0.33-15.5-27.14-31.29-39.77-43.91-17.03-21.68-44.07-26.49-65.89-41.17-16.59-3.24-35.4-35.8-5.95-25.16 14.91-7.87 42.1 16.6 47.11 0.92-24.19-10.95-43.69-31.07-69.58-39.13-15.21-11.58-75.07-6.49-52.54-35.43 22.33-3.34 47.65-4.11 67.23 7.32-6.25-20.98-47.12-24.39-68.37-32.83-18.52-0.18-63.6 1.81-56.5-24.34 8.41-5.99 33.92-14.62 10.12-19.84-30.74-8.32-59.75 11.38-90.62 5.2-15.59-22.18 29.84-33.7 46.86-35.49-21.9-11.57-52.68-5.01-74.3 4.39-15.87 6.76-55.1 18.99-61.3-1.38 9.16-21.87 40.62-25.17 53.37-35.17-23.39 3.37-53.6-1.85-69.37 20.54-12.78 19.33-39.71 23.37-57.59 21.73-5.71-13.12 19.24-37.7-6.88-24.26-16.28 10.3-19.7 35.51-42.57 35.46-14.8 21.25-5.46 56.34 25.61 44.6 20.9 3.47-16.67 14.59-20.12 18.52 8.2 28.97 53.55 8.02 77.3 14.18 27.5-10.43 56.13 13.38 85.54 4.35 22.77 12.55 48.98 17.53 72.27 27.67 21.5 13.85 35.15 36.75 52.6 54.43 12.67 22.53 29.75 41.52 40.25 65.41 17.68 17.95 17.12 46.96 26.99 66.78 2.88-17.67 35.8-13.95 16.21-2.03-2.51 23.82-24.69 29.39-45.94 32.22 13.93 6.01 38.78 5.21 32.47 27.44 20.39 9.4 56.27 41.39 73.64 16.92 10.88-28.93 48.77-14.7 60.38 6.87 12.42 7.59 16.62 43.17 30.34 17.16 27.47-9.94 50.39 8.15 68 26.75 5.47 14.06 27.56 14.11 9.61-0.92-19.04-20.07-30.16-45.51-48.46-66.06-15.49-19.25-31.14-37.32-48.06-55.15-11.32-8.22-21.62-19.83-33.84-25.61z" fill-rule="evenodd" stroke="#d3271e" stroke-width="1px" fill="url(#radialGradient2490)"/>
      <path id="path16081" style="color:#000000" d="m721.22-611.12c-7.51-6.51-17.94-12.34-20.23-23-6.2-10.66-15.17-19.27-21.32-29.8-1.23-5.27-0.55-12.62 1.68-3.24 8 8.46 17.24 18.2 29.18 19.98 10.41 1.15 17.6-5.98 13.93-16.53 4-12.42-5.97-17.38-15.55-20.9-7.39-8.62-18.61-11.57-28.17-16.83-6.52-8.05-11.66-18.08-16.33-27.68-0.32-14.45-0.55-29.05 0.13-43.5-0.26-6.99 6.41-12.96 4.89-2.36-0.95 11.63 4.12 20.96 7.69 31.16-0.32 12.66 12.75 16.21 19.58 24.24 8.34 8.15 19.39 12.62 29.83 17.03 9.05 6.25 16.56 16.35 19.78 26.7 1.56 14.55 2.3 29.49-0.76 43.88-1.23 12.28 3.85 24.47 14.31 31.26 10.37 6.39 19.78-2.83 17.19-13.95 1.67-10.39-10.09-18.09-6.47-28.82 4.41-8.51 9.55-18.98 17.55-23.43-5.6 10.19-5.75 21.91-5.41 33.24-2.04 11.64 3.66 21.43 9.42 30.82 6.33 7.88 9.95 17.13 9.59 27.34 0.97 8.81-0.91 16.03-10.09 18.36-6.27 11.2-1.17 24.41-1.23 36.46 1.31 12.05-10.9 18.06-21.3 15.58-10.7 1.05-23.36-5.08-27.32-15.3-3.76-15.18-1.25-31.02-1.96-46.51 0.51-11.75-7.51-21.27-11.43-31.79-3.57-3.48-4.45-8.43-7.18-12.41z" fill-rule="evenodd" stroke="#d3271e" stroke-width="1px" fill="#f00"/>
      <path id="path16087" style="color:#000000" d="m235.88-12.851h-13.4c-3.46 0-8.68 0.681-11.91 1.489-5.46 1.3662-7.03 3.5144-11.91 5.9544-5.78 2.8943-10.27 8.6927-15.63 11.91-5.45 3.2729-11.17 7.4556-15.63 11.91-5.32 5.325-10.11 10.11-14.89 14.887-3.37 3.378-6.03 9.043-8.18 11.91-2.88 3.84-5 7.006-6.7 10.421-2.01 4.022 1.27-2.261 5.21-5.211 4.78-3.59 10.2-5.375 14.88-8.188 5.13-3.077 9.36-7.364 15.64-8.932 5.65-1.414 10.65-6.444 15.63-8.932 4.81-2.407 9.85-4.925 14.88-7.444 4.7-2.348 9.73-1.127 14.15-2.233 5.95-1.488 6.69-1.112 11.16-4.466 3.34-2.5019 3.66-6.454 4.47-9.6767 1.12-4.4894 0.09-9.1142 2.23-13.398z" fill-rule="evenodd" stroke="#d3271e" stroke-width="1px" fill="#f00"/>
      <path id="path16089" style="color:#000000" d="m76.589 148.67c0.973-3.88 7.58-2.67 11.166-4.46 4.455-2.23 7.282-8.03 10.421-11.17 3.234-3.23 6.924-7.18 10.424-8.93 5.28-2.64 10.56-6.84 14.14-10.42 5.06-5.06 11.18-8.2 18.61-11.17 4.83-1.93 10.87-6.661 14.89-9.672 4.68-3.512 12.54-3.88 17.86-5.211 5.78-1.445 13.99 0 20.1 0 2.17 0 2.23 8.903 2.23 11.166v14.887c0 5.01 1.42 7.83-2.98 8.93-5.75 1.44-14 0-20.09 0-4.55 0-8.37-0.42-12.66-1.49-4.11-1.03-6.39-2.23-10.42-2.23-5.11 0-9.72 0.74-14.89 0.74-5.62 0-7.34 1.4-10.42 4.47-2.26 2.26-5.71 4.84-8.19 6.7-3.49 2.62-5.5 7-8.93 10.42-3.78 3.78-5.8 7.37-10.419 9.68-3.547 1.77-7.4 1.49-11.909 1.49-4.873 0-5.423 0.66-8.933-3.73z" fill-rule="evenodd" stroke="#d3271e" stroke-width="1px" fill="#f00"/>
      <path id="path16091" style="color:#000000" d="m295.43 193.34c-6.37 2.94-10.25 9.46-16.61 12.49-6.24 5.42-10.86 12.52-15.31 19.43-3.89 7.01-7.43 14.3-11.99 20.88-7.28 5.72-8.94 15.19-10.13 23.82-1.93 9.04-5.11 17.94-4.01 27.35 0.71 7.88-0.19 16.07 1.9 23.71 3.57 7.62 2.99 17.93 11.18 22.67 5.35 4.71 14.91 5.11 16.73 13.14 0.24 3.31 7.05 9.17 4.3 2.05-1.37-6.09-4.72-11.31-8.81-15.93-7.15-10.56-5.07-23.7-5.04-35.7-0.08-8.62 4.78-16.08 9.4-22.95 4.73-5.36 9.25-10.87 13.96-16.21 5.42-5.8 13.14-9.21 21.13-8.51 8.08 0.17 16.8 1.14 23.09-5.03 6.36-7.03 2.99-16.73 3.86-25.15-0.61-7.06 4-12.52 7.29-18.2 2.82-6.63 8.28-12.4 11.23-18.46-4.5 5.17-7.68 12.12-14.57 14.6-7.63 3.36-11.55 12.94-20.2 13.95-6.38 1.02-14.26 3.77-19.23-2.27-7.37-5.88-5.25-16.28-1.6-23.46 1.06-0.87 2.27-1.51 3.43-2.22z" fill-rule="evenodd" stroke="#d3271e" stroke-width="1px" fill="#f00"/>
      <path id="path16093" style="color:#000000" d="m248.54 197.8c-0.1-2.53-2.67 1.73-3.39 2.62-2.48 3.36-4.33 7.11-6.47 10.68-1.68 2.8-4.18 4.94-6.11 7.53-3.49 5.37-2.65 12.09-2.34 18.15 0.45 4.34 0.36 8.7 0.56 13.04 1.17 0.53 1.91-3.26 2.85-4.29 2.02-3.53 4.25-6.94 6.08-10.58 1.92-3.42 4.75-6.22 6.72-9.59 1.72-3.48 2.03-7.42 3.34-11.03 1.97-3.69 4.93-6.73 7.41-10.07 2.48-3.08 5.33-6.07 6.65-9.86 0.52-2.51-2.29-3.77-4.27-4.27-2.01-0.66-4.27-1.02-6.18 0.13-1.81 1.36-4.78 2.21-5.44 4.39 0.08 1.07 0.56 2.07 0.59 3.15z" fill-rule="evenodd" stroke="#d3271e" stroke-width="1px" fill="#f00"/>
      <path id="path16095" style="color:#000000" d="m148.47 155c-10.2 26.5-49.201 61.04-52.665 75.02 19.255-22.6 55.125-27.85 33.835 9.89-13.63 33.56-24.69 70.78-26.81 107.89-8.806 43.09 26.65-16.35 32.88 24.58 7.05 39.15 0.22 81.34 25.21 115.87 3.72 27.27 49.46 64.92 26.81 14.36-15.28-55.43 53.99-30.97 62.89 4.79 32.05 43.87 62.46 96.81 116.51 116.83 32.12 15.66 14.37-9-6.07-14.05-27.63-15.46-47.15-84.4 2.55-60.96 39.17 17.39 61.41 66.26 107.89 77.24 31.33-3.08-25.87-35.69-21.03-57.94-11.41-48.69 50.42-66.75 87.75-58.25 45.73-5.52 87.42 13.28 131.19 19.16 37.3 16.07 76.85 40.21 96.08 77.88 21.8 38.6 46.31 78.22 43.09 124.17 2.11 56.58-8 116.14-44.14 160.73-23.52 40.85-62.85 69.62-99.99 96.83-32.38 14.76-70.02 36.46-104.72 32.96-34.72 5.1-69.89-9-103.83-16-41.92-10.45-86.49-40.68-87.8-88.06 4.66-31.29 8.42-62.41-4.06-94.12-9.13-19.98-17.35-82.55-18.06-28.44 5.5 23.84 17.93 82.32-2.48 83.96-8.14-20.02-12.42-40.78-24.27-59.36-13.47-25.38-30.08-49.28-38.59-76.63-17.64-29.47-22.26-68.9-4.22-99.21-14.85-4.96-29.36 53.59-20.85 73.14-3.34 18.38 30.33 82.09-7.39 46.67-43.59-28.71-95.14-22.41-144.14-29.11-49.646 3.75-83.182-31.03-115.5-63.29-25.493-28.07-42.269-60.5-61.45-91.94-9.385-14.62 3.123-80.65-12.936-65.61-3.586 46.65 10.91 90.18 36.96 127.98 26.397 33.81 53.388 65.48 88.242 90.55 41.466 25.85 90.234 24.77 132.13 47.12 40.85 16.25 69.93 53.5 94.71 87.32-17.45 12.71-62.61-49.29-44.82-14.32 24.98 29.32 57.95 54.62 94.17 66.66-24.19 11.01-63.47 0.72-68.21-7.79 17.76 36.73 71.86 44.09 88.56 78.53-21.12 15.95-107.6-40.61-57.09 4.93 32.49 18.12 67.02 39.92 104.56 42.82 45.65-15.4 55.34 34 8.12 38.5-15.9 0-72.17-8.6-28.44 9.2 46.62 13.5 99.64 0.6 142.58-21.1 64.72 3.8-45.29 47.3-32.5 46.2 46.06 12.4 95.1-24.9 121.89-61.7 49.39-25.8 16.81 51.3-11.82 57.6 44.61-0.6 65.68-47.1 90.74-78.3-3.72-48.76 68.96-41.97 29.77 1.5-7.27 18.7-40 64.9-3.13 29.3 24.52-27.8 29.94-65.3 46.49-97.71-1.96-37.14 55.35-69.04 38.39-12.54-0.65 20.82-41.45 86.05-2.87 40.48 11.57-29.1 23.98-54.9 28.73-85.93 10.26-23.88-1.46-80.35 25.34-86.72 23.86 10.76 17.16 107.26 29.25 44.93-4.36-38.6-0.83-78.13-9.92-115.97-25.92-17.01-4.65-75.32 18.54-31.08 11.79 33.32 26.71 23.39 15.41-6.53-5.91-32.56-29.17-64.54-57.98-84.11-24.47-14.93-65.39-51.71-12.54-58.5 57.99 2.82-31.61-32.08-50.25-35.93-34.79 12.96-108.74-34.65-42.32-46 25.25 0.34 88.4-5.7 30.18-16.34-49.99-7.51-103.25-9.05-149.44 10.17-49.96-3.43 0.38-42.92 15.85-49.85-50.47-11.96-84.61 46.43-132.77 53.44-38.92 20.76-85.53 21.34-128.65 22.76-44.76 1.52-87.08-17.93-121.94-44.69-33.37-23.99-62.64-54.41-76.6-94.16-25.7-44.61-20.44-100.19-0.64-145.88-2.74-31.95 56.14-70.82 8.62-91.29-8.08 8.19-18.72 16.66-22.99 27.45z" fill-rule="evenodd" stroke="#d3271e" stroke-width="1px" fill="#f00"/>
      <path id="path16097" style="color:#000000" d="m125.16 501.86c-11.72-5.76-37.545-17.55-45.694-34.46-4.798-16.18-21.937-47.84-36.869-21-13.651 14.07-9.328 34.45-10.155 52.09 6.769 7.23 8.122 19.29-4.856 12.12-15.835-13.81-32.329-33.89-35.074-55.34 6.7022-30.89-39.781 4.1-36.227-21.79 1.004-28.6-1.981-57.2-1.077-85.7-0.557-15.95-27.995-40.68-37.531-19.74-6.831 18.66-23.977 32.32-31.877 48.01 15.335 11.38 16.049 48.84-11.15 38.42-16.48-8.48-23.42-27.26-33.82-41.9-6.61-15.3-24.9-32.57-12.98-49.46 4.73 10.48 24.35 43.75 39 31.56 11.17-20.68 16.49-44.14 16.47-67.55 1.65-18.52-30.11-20.19-19.6-42.32 3.16-17.28-7.9-29.79-10.69-44.09-18.85 6.44-31.94 23.82-48.52 34.29-4.92 11.79-28.81 14.02-17.51-3.33 8.55-17.65 29.21-24.35 37.8-42.05 11.12-17.76 29.97-19.52 48.93-19.67 9.55-14.3 34.239-14.87 29.158 7.51-6.688 17.03-36.798 29.98-11.228 47.12-0.41 19.8 20.112 10.21 14.174-4.73 14.704-13.76 3.585-32.8 12.945-48.37 3.569-12.37 39.566-10.79 20.365-23.25-13.441-13.07-27.861-24.47-41.394-37.32-12.72 0.13-16.9-15.343-0.74-10.54 18.187 1.09 32.222 16.25 50.905 20.34 14.296 16.24 34.82 27.87 44.932 47.57 11.663 27.72-23.133 15.2-37.835 19.4-16.334 10.39-19.826 31.44-18.432 49.48-4.987 21.12 19.095 26.91 27.046 42.97 10.697 16.38 5.29 39.31 15.878 55.82 1.188 15.9 20.516 42.64 33.045 19.07 19.013-12.5 12.416-36.33 17.154-55.68 0.48-16.02 5.753-33.11 9.697-47.29 0.098-18.81 13.051-31.73 20.673-47.49 11.055-14.71 19.686-32.15 34.62-43.61 6.447-8.96 40.607-12.59 19.917 2.2-17.596 10.63-27.417 30.41-40.324 46-10.29 19.83-9.917 43.3-14.986 64.68-5.047 13.46 7.506 30.73 15.403 11.21 3.075-7.79 18.137-33.62 23.294-17.43-14.108 12.46-9.347 31.89-13.949 48.77 6.755 20-10.804 36.95-4.402 55.24-0.595 20.79 4.44 41.93 16.014 59.08 19.88 16.92 12.21-14.4 18.38-23.85 14.96 8.77 2.88 33.39 16.54 45.39 5.33 13.37 12.71 35.77 19.59 52.95 11.45 5.32 13.09 30.92-3.32 20.44-4.22-9.72-11.79-19.51-21.69-23.77z" fill-rule="evenodd" stroke="#d3271e" stroke-width="1px" fill="#f00"/>
      <path id="path16099" style="color:#000000" d="m221.06 156.15c-4.7 1.57-8.48 7.98-10.97 12.96-2.06 4.11-8.5 8.49-11.97 11.97-4.39 4.39-5.99 14.94-5.99 20.95 0 8.99-5.05 19.14-7.98 27.93-2.81 8.44-7.19 12.01-8.98 20.94-1.85 9.25 3.5 15.62-1.99 22.94-2.12 2.84-3.11 22.51-3.99 26.94-1.6 8 0 17.7 0 25.93 0 8.2 3.13 16.5 4.99 23.94 1.44 5.76 6.91 16.78 8.97 21.94 2.94 7.34 9.59 7.44 11.97 16.96 1.43 5.72 9.32 6.32 13.97 10.97 3.6 3.61 5.98 8.97 8.97 11.97 5.05 5.05 8.34 10.65 14.97 13.96 6.37 3.19 10.41 9.2 15.96 11.97 5.17 2.59 12.31 11.32 15.95 14.96 3.92 3.92 14.06 7.26 19.95 11.97 5.71 4.57 10.34 5.66 16.96 6.99 8.42 1.68 15.35 7.98 24.94 7.98 4.15 0 14.29 2.16 17.95 3.99 4.93 2.46 12.68 2.67 17.95 3.99 5.12 1.27 9.26 1.99 15.96 1.99 6.76 0 12.26 1 18.95 1 7.07 0 11.79 0.99 17.96 0.99 12.77 0 21.86-0.97 33.91-3.98 5.2-1.3 22.83-5.99 7.98-5.99h-26.93c-7.6 0-15.73-0.81-22.94 1-6.06 1.51-14.62 0-20.95 0-6.2 0-15.24-2.82-19.95-3.99-13.83-3.46-22.02-9.34-35.9-13.97-10.78-3.59-21.5-7.58-30.92-12.96-8.91-5.09-14.72-9.73-20.95-15.96-7.66-7.66-12.52-10.79-22.94-14.96-6.9-2.76-12.06-10.43-17.96-13.97-8.26-4.95-14.3-17.29-20.94-23.94-4.81-4.8-4.65-12.95-6.98-19.95-2.95-8.83-6.13-14.25-9.98-21.94-4.87-9.75-6.05-19.13-9.97-28.93-2.19-5.46 0.12-18.66 0.99-23.93 1.7-10.16 5.99-17.86 5.99-28.93 0-8.21 3.99-15.26 3.99-23.94 0-6.62 2.97-14.91 5.98-20.94 4.04-8.07 16.94-14.95 23.94-21.95 6.33-6.33 8.53-10.71 13.97-17.95 5.16-6.89-10.93-16.94-14.97-18.95-2.41-1.21-6.53-0.41-8.97 0z" fill-rule="evenodd" stroke="#d3271e" stroke-width="1px" fill="#f00"/>
      <path id="path16101" style="color:#000000" d="m465.43 537.17c-8.2 22.23 12.89 31.15 31.7 27.94 33.38-0.29 66.83-0.31 99.96 3.98 17.47-0.39 34.85 2.22 49.86 11.78 18.23 12.33 38.54 21.34 56.47 34 16.23 8.91 26.01 21.9 35.31 37.01 11.31 17.36 22.48 33.85 26.56 55.22 10.27 30.41 5.69 62.95 5.36 94.39-5.54 22.17-14.63 43.32-26.07 63.15-9.08 17.86-23.63 32.29-32.35 50.43-13.41 13.98-21.87 31.69-36.06 44.89-8.87 3.85-24.97 22.33-8.03 8.16 18.58-2.12 34.11-11.96 45.08-27.61 19.43-12.13 26.75-34.12 34.42-54.34 13.27-15 23.76-31.76 29.37-51.2 10.67-29.74 20.76-60.76 18.57-92.83 3.43-18.84-13.55-32.66-11.96-51.36-6.84-16.91-12.21-34.66-20.95-50.87-9.59-18.19-20.06-36.45-34.91-50.87-12.89-12.04-25.78-24.4-40.24-34.63-14.76-9.85-29.79-22.6-48.7-21.89-19.61-1.11-39.55-1.36-58.47-7.11-31.96 0.02-64.06-1.19-95.96 0.69-7.06 1.63-15.18 4.41-18.96 11.07z" fill-rule="evenodd" stroke="#d3271e" stroke-width="1px" fill="#f00"/>
      <path id="path4930" style="color:#000000" d="m620.81-356.46c4.66-1.88 9.05 8.52 14.31 10.33 4.27 7.66 11.65 12.07 18.52 16.99 6.21 6.21 13.68 11.36 22.55 12.71 7.21 3.05 14.74 5.1 22.12 7.74 14.92 4.83 30.82 3.68 46.26 3.27 7.33 0.05 14.64-0.53 21.18-4.18 7.81-2.14 15.7-4.09 23-7.72 5.49-1.21 18.15-5.03 16.99-9.63-10.28-0.82-20.57 0.23-30.56 2.71-9.82 0.71-19.67-0.65-29.52-0.19-16.67-0.36-34.11 1.82-49.84-5.14-8.68-2.24-16.95-5.47-23.92-11.29-6.53-5.21-15.34-11.65-12.53-21.3-0.57-10.16 12.75-3.66 18.65-4.31 12.12 0.4 24.29-0.77 36.37 0.18 8.37 2.16 17.01-0.13 25.5 0.44 6.92-1.8 15.23-0.24 20.89-5.43 5.52-3.9 6.12-10.7-1.88-7.21-13.91 1.73-28.06 0.83-42.02 2.37-15.04 0.99-30.59-0.27-44.54-6.29-7.9-1.5-13.51-8.16-21.16-10.29-6.64-4.3-13.29-9.69-18.23-15.58 5.86-2.29 12.88-0.32 19.19-0.44 7.91-1.28 14.17 3.72 21.39 5.5 8.21 0.81 16.5 0.58 24.67 1.39 8.03 1.28 16.18-0.58 24.28 0 10.69 0.64 22.49-1.07 30.23-9.13 3.34-3.67 2.77-9.78-2.92-5.29-10.05 6.09-22.32 3.9-33.49 4.41-11.96 0.09-24.36 0.7-35.57-4.26-8.56-1.48-16.98-3.57-25.48-5.32-8.97-0.66-17.87 0.57-26.19 3.99-6.87 6.79-5.25 17.75-5.59 26.61-1.31 7.99 4.07 18-3.55 23.85-2.07 3.57 2.02 6.83 0.89 10.51z" fill-rule="evenodd" stroke="#d3271e" stroke-width="1px" fill="url(#radialGradient2478)"/>
      <path id="path4920" style="color:#000000" d="m432.73-510.05c-12.2-2.65-23.99 9.98-34.94 6.87-6.31-10.77-10.54-23.23-22.23-29.27-14.46-4.82-13.95 12.17-12.9 21.66 2.26 7.3-1.87 21.67-10.07 11.84-4.19-10.39-1.15-22.26-1.46-33.28 1.26-10.96 4.68-26.28-5.61-33.72-7.91-7.88-30.55-8.83-32.37 5.16 1.09 14.97-21.28 17.94-17.57 33.41-1.39 13.17 4.32 25.7 3.59 38.79-9.18 9.19-20.85-2.62-30.21-6-9.47-8.82-20.65-15.28-29.86-24.24-6.74-10.81 11.07-2.44 15.03 0.5 12.89 6.11 23.69-7.9 21.25-20.18 1.72-8.72-4.72-23.92 6.51-27.18 6.18-14.21-16.67-19.09-15.56-33.47-1.38-10.16 4.59-20.32-5.88-27.8-6.66-11.2 2.21-26.61-10.54-34.86-5.28-13.71 18.68-15.49 16.42-29.3-7.94-7.11-23.63-6.05-31.83-1.52-7.08 5.52-20.03 2.9-24.12 14.07-4.41 3.2-11.73 13.21-8.04 1.68 7.65-8.66 12.49-19.49 23.36-25.27 9.54-5.4 19.5-12.32 31.25-10.92 12.44-0.45 24.28 4.4 36.86 2.68 10.99 2.33 14.79 15.54 13.12 25.38-5.36 10.42-18.94 17.09-18.82 29.91 0.84 10.1-3.42 26.64 11.52 26.51 4.11-11.29 6.24-22.82 15.47-31.59 13.61-2.01 18.79-16.59 25.61-27.76 10.96-1.71 21.9-15.3 9.02-23.65-9.52-8.22-19.54-18.66-33.47-15.89-10.19-1.72-23.42 3.84-31.5-3.68 4.85-10.19 20.83-1.09 28.82-8.71 12.23-3.3 19.78 8.72 30.93 9.76 9.43 4.92 16.38 12.85 23.85 20.55 6.45 8.91 10.63 18.91 16.25 27.99 2.73 9.01 5.01 22.6-9.38 19.43-10.94-0.74-20.57 7.13-26.81 15.22-4.61 11.4-18.41 18.96-18.4 31.47 4.26 11.46 18.82 11.37 26.95 18.92 10.57 5.95 18.05 16.09 25.63 24.18 4.55 9.66 16.08 13.5 19.76 24.12 6.77 8.19 13.36 16.53 18.93 25.63 2.51 5.86 10.2 6.95 11.44 12.56z" fill-rule="evenodd" stroke="#d3271e" stroke-width="1px" fill="url(#radialGradient2475)"/>
      <path id="path5932" style="color:#000000" d="m351.58-213.95l2.51 16.75 19.26 11.72 31.81-4.19 34.33-23.44 24.28 73.67 23.44-33.48 121.4 61.95h57.77l10.05-5.86 1.67-11.72s-52.74-98.8-52.74-104.66-18.42-79.53-18.42-79.53l61.95-109.68-28.46-25.96-66.98-41.86-90.42-36.84-51.08 6.7-35.16 23.44s-21.77 29.31-21.77 33.49c0 4.19-13.39 50.24-13.39 50.24l-5.86 68.65 18.42 53.58-5.03 2.52 5.86 20.09s-118.05 20.09-121.4 17.58-63.63-23.44-63.63-23.44l2.51 37.67 39.35 1.68 96.29 29.3 23.44-8.37z" stroke="#1f1a17" stroke-width=".87897" fill="#00416d"/>
      <path id="path6809" style="color:#000000" fill-rule="evenodd" fill="#005064" d="m376.32-262.87c0.43 0.54-2.5 24.29-2.5 24.29s-11.95 7.67-27.32 10.09c-15.38 2.41-17.91 2.78-35.46-0.44-14.94-2.74-35.14-10.08-35.14-10.08s-17.73-5.86 7.37-11.82c25.11-5.97 93.05-12.04 93.05-12.04z"/>
      <path id="path7684" style="color:#000000" fill-rule="evenodd" fill="#005064" d="m360.87-207.8c0.27 0 11.45-0.14 11.85 0.39 0.39 0.53 14.6 1.65 15.92 1.65s22.25 1.53 22.25 1.53-1.28 2.98-6.49 4.76c-5.21 1.79-1.36 3.86-6.75 5.89-5.4 2.04-11.52 1.8-18.85-0.07-7.32-1.86-17.26-9.72-18.06-10.91-0.15-0.23 0.2-3.18 0.13-3.24z"/>
      <path id="path8559" style="color:#000000" fill-rule="evenodd" fill="#005a6e" d="m533.07-170.74s21.96 25.08 23.4 24.6c1.45-0.48 10.38 0.97 10.38 0.97s18.33 12.54 20.02 12.54 38.11 7.24 39.8 7c1.69-0.25 40.29 0.24 40.29 0.24l-21.72-50.9-55-25.57-57.17 31.12z"/>
      <path id="path9434" style="color:#000000" fill-rule="evenodd" fill="#005a6e" d="m388.28-276.05s-2.04 29.46-2.04 31.51c0 2.04-6.98 16.51-7.33 17.53-0.34 1.03-8.51 12.43-8.51 12.43s17.54 2.56 18.22 2.56 30.48-2.39 31.33-3.24-1.36-17.71-0.68-18.56 12.77-43.25 12.77-43.25-17.71 9.37-19.58 9.88-7.83-0.51-8.34-1.19c-0.52-0.68-4.26-4.43-4.94-5.79s-10.56-1.88-10.9-1.88z"/>
      <path id="path10309" fill-rule="evenodd" fill="#005064" d="m596.73-309.44c-2.41 0.3-149.59 52.41-149.59 52.41s-0.61 14.11-2.42 15.02c-1.8 0.9 14.45 34.31 24.38 40.03 9.94 5.72 52.98 15.05 52.98 15.05s11.44 18.66 12.64 17.76c1.21-0.9 56.29-30.4 56.29-30.4l55.39 25.59s-28.6-61.41-28.6-63.22c0-1.8-22.27-65.32-22.27-65.32l1.2-6.92z"/>
      <path id="path11184" stroke-linejoin="round" style="color:#000000" d="m431.18-275.6c2.19-2.18 34.95-36.58 34.95-36.58l45.31-78.07 20.75-53.5s-3.28-33.85-4.37-36.04c-1.09-2.18-18.02-26.2-20.2-29.48-2.19-3.27-25.12-15.28-25.12-15.28l-48.59 5.46-35.48 22.38-19.66 34.94-14.19 48.59-6.01 66.06 20.2 56.78 10.38 16.92 10.37 0.55 9.28 6s6.55-2.73 11.47-3.27c4.91-0.55 11.46-6.01 10.91-5.46z" stroke="#1f1a17" stroke-linecap="round" stroke-width=".87897" fill="#afa518"/>
      <path id="path8726" style="color:#000000" d="m507.6-404.91c-20 61.88-86.66 105.68-104.72 99.85-9.17-2.97-29.22-21.87-33.16-50.59-3.81-27.81 4.47-62.21 14.3-92.65 20-61.88 81.4-66.58 99.46-60.75 18.05 5.84 44.12 42.26 24.12 104.14z" fill-rule="evenodd" stroke="#000" stroke-width="3" fill="#f00"/>
      <path id="path4421" stroke="#1f1a17" stroke-width=".21958" fill="#a2acb3" d="m481.35-397.77s-72.06-23.62-93.53-38.59-2.67 2.89-1.84 3.59c25.12 21.32 58.67 30.37 92.2 39.95l3.17-4.95z"/>
      <path id="path3472" stroke="#1f1a17" stroke-width=".22134" fill="#a2acb3" d="m493.52-427.32s-74.49-21.83-96.82-36.17-2.69 2.9-1.83 3.58c26.21 20.54 60.85 28.79 95.48 37.55l3.17-4.96z"/>
      <path id="path3474" stroke="#1f1a17" stroke-width=".20395" fill="#a2acb3" d="m498.77-452.51s-66.17-20.65-86.03-34.3-2.38 2.79-1.61 3.43c23.31 19.57 54.08 27.35 84.84 35.62l2.8-4.75z"/>
      <path id="path4932" style="color:#000000" d="m235.88-12.851h-13.4c-3.46 0-8.68 0.681-11.91 1.489-5.46 1.3662-7.03 3.5144-11.91 5.9544-5.78 2.8943-10.27 8.6927-15.63 11.91-5.45 3.2729-11.17 7.4556-15.63 11.91-5.32 5.325-10.11 10.11-14.89 14.887-3.37 3.378-6.03 9.043-8.18 11.91-2.88 3.84-5 7.006-6.7 10.421-2.01 4.022 1.27-2.261 5.21-5.211 4.78-3.59 10.2-5.375 14.88-8.188 5.13-3.077 9.36-7.364 15.64-8.932 5.65-1.414 10.65-6.444 15.63-8.932 4.81-2.407 9.85-4.925 14.88-7.444 4.7-2.348 9.73-1.127 14.15-2.233 5.95-1.488 6.69-1.112 11.16-4.466 3.34-2.5019 3.66-6.454 4.47-9.6767 1.12-4.4894 0.09-9.1142 2.23-13.398z" fill-rule="evenodd" stroke="#d3271e" stroke-width="1px" fill="url(#radialGradient2461)"/>
      <path id="path4934" style="color:#000000" d="m76.589 148.67c0.973-3.88 7.58-2.67 11.166-4.46 4.455-2.23 7.282-8.03 10.421-11.17 3.234-3.23 6.924-7.18 10.424-8.93 5.28-2.64 10.56-6.84 14.14-10.42 5.06-5.06 11.18-8.2 18.61-11.17 4.83-1.93 10.87-6.661 14.89-9.672 4.68-3.512 12.54-3.88 17.86-5.211 5.78-1.445 13.99 0 20.1 0 2.17 0 2.23 8.903 2.23 11.166v14.887c0 5.01 1.42 7.83-2.98 8.93-5.75 1.44-14 0-20.09 0-4.55 0-8.37-0.42-12.66-1.49-4.11-1.03-6.39-2.23-10.42-2.23-5.11 0-9.72 0.74-14.89 0.74-5.62 0-7.34 1.4-10.42 4.47-2.26 2.26-5.71 4.84-8.19 6.7-3.49 2.62-5.5 7-8.93 10.42-3.78 3.78-5.8 7.37-10.419 9.68-3.547 1.77-7.4 1.49-11.909 1.49-4.873 0-5.423 0.66-8.933-3.73z" fill-rule="evenodd" stroke="#d3271e" stroke-width="1px" fill="url(#radialGradient2458)"/>
      <path id="path3476" stroke="#1f1a17" stroke-width=".1562" fill="#a2acb3" d="m501.74-474.32s-51.93-16.58-67.4-27.1-1.92 2.03-1.32 2.52c18.1 14.97 42.28 21.33 66.43 28.06l2.29-3.48z"/>
      <path id="path3478" stroke="#1f1a17" stroke-width=".21321" fill="#a2acb3" d="m469.16-369.3s-68.62-23.39-89.07-38.2-2.54 2.85-1.75 3.55c23.92 21.1 55.88 30.07 87.8 39.55l3.02-4.9z"/>
      <path id="path3480" stroke="#1f1a17" stroke-width=".18685" fill="#a2acb3" d="m450.45-344.86s-56.91-21.66-73.86-35.38-2.11 2.64-1.46 3.29c19.84 19.55 46.34 27.85 72.81 36.63l2.51-4.54z"/>
      <path id="path3482" stroke="#1f1a17" stroke-width=".12652" fill="#a2acb3" d="m428.96-322.37s-39.69-14.23-51.51-23.26-1.47 1.74-1.02 2.17c13.84 12.85 32.32 18.3 50.78 24.08l1.75-2.99z"/>
      <path id="path10479" style="color:#000000" d="m402.13-314.94s-3.56-41.77-2.67-44.88 4.44-28.88 4.44-28.88l7.11-29.77 8.89-29.33 15.11-26.66 16.44-15.11s29.33-11.55 27.55-11.1c-1.78 0.44-12.89-0.45-12.89-0.45l-19.99 8.89-17.78 17.33-13.77 26.21-7.56 31.11-7.1 29.77-4 29.33 2.66 44.88 3.56-1.34z" stroke="#1f1a17" stroke-width=".17579" fill="#a2acb3"/>
      <path id="path4117" stroke="#1f1a17" stroke-width="1.5113" fill="#a29b4c" d="m384.48 190.31l-212.8-181.19-281.06-224.48-339.47-269.04s-30.04-25.84-35.47-24.36c-5.8 1.95-17.43 15.1-12.08 20.52 5.35 5.41 282.02 231.03 282.02 231.03l336.2 279.95 43.76 36.761s202.02 171.92 205.48 173.89c3.87 1.93 66.2 19.12 25.99-29.88l-12.57-13.2z"/>
      <path id="path16061" style="color:#000000" d="m197.89-486.11c6.6 5.91 7.84 20.27 0.34 26.21-4.22 8.55-3.58 19.57 5.23 24.14 0.22 6.48-2.14 17.33 6.72 17.26 1.71 10.04 4.14 20.24 10.93 28.27 7.9 5.53 10.64 15.43 18.44 21.24 6.52 9.47 14.14 18.2 19.32 28.58 3.88 8.76 7.97 17.34 13.83 24.87 1.61 9.51 0.11 21.29 6.71 28.86 3.21 9.82 3.1 22.1 0.16 32.37-4.59 7.89-11.02 14.59-12.8 24.22-8.09 7.27-21.2 10.74-31.39 6.92-8.18-6.03-17.17-10.95-24.75-17.64-7.59-7.8-16.63-15.55-19.04-26.67-2.68-14.34-13.04-25.34-20.45-37.36-7.16-7.91-17.4-11.24-26.99-14.89-8.88-12.67 12.79-10.38 19.96-7.91 10.12 4.89 14.77 16.5 22.58 24.41 6.71 8.09 14.41 16.68 14.51 27.87 4.24 10.87 11.58 20.57 19.9 28.71 6.52 8.36 16.63 10.61 26.61 11.81 11.74 1.66 19.5-10.82 22.43-20.79 1.13-12.21-1.16-24.04-4.87-35.63-2.24-12.62-11.28-22.23-17.19-33.12-4.23-10.71-7.89-22.15-17.51-29.31-6.4-8.74-13.41-17.2-17.76-27.29-5.31-10.55-13.29-19.54-17.84-30.41-1.75-11.59-8.67-22.42-6.97-34.52 1.33-9.64-3.49-22.2 4.73-29.45 3.88-2.53 1.89-8.91 5.16-10.75z" fill-rule="evenodd" stroke="#d3271e" stroke-width="1px" fill="#f00"/>
      <path id="path4119" d="m43.902-71.845l137.59 113.67s10.51 10.171 14.9 1.959c4.66-8.572-10.26-18.083-10.26-18.083l-144.46-117.32c-0.002 0.005-25.711-11.361-10.155 7.162l12.387 12.612z" fill="#bcb253"/>
      <path id="path4121" d="m207.19 45.763l175.05 149.24s21.87 18.44 17.24 23.3c-4.29 4.83-23.42-9.9-23.42-9.9l-179.51-151.88c0-0.003 1.25-14.485 10.64-10.757z" fill="#bcb253"/>
      <path id="path4563" d="m-457.11-483.47l75.07 60.52s0.37-0.47-5.42 5.35c-5.98 6.06-11.33 0.64-11.33 0.64l-70.81-57.13s0.35-14.02 12.49-9.38z" fill="#bcb253"/>
      <path id="path4565" d="m-364.13-408.71l154.34 122.07s8.05 10.27 1.37 15.76c-6.27 5.45-24.58-9.9-24.58-9.9l-143.66-118.98s-10.44-21.83 12.53-8.95z" fill="#bcb253"/>
      <path id="path2578" d="m-195.97-261.96l178.67 144.88c-0.003 0 35.904 25.656 28.004 32.476-8.3251 6.863-37.415-22.516-37.415-22.516l-178.57-146.47s-17.13-23.3 9.31-8.37z" fill="#bcb253"/>
      <path id="path4567" d="m-184.72-270.68l180.35 142.78c0.0027 0 36.208 25.23 28.389 32.141-8.244 6.959-37.677-22.081-37.677-22.081l-180.27-144.36s-17.41-23.1 9.21-8.48z" fill="#bcb253"/>
      <path id="path1695" d="m33.902-55.845l137.59 113.67s10.51 10.171 14.9 1.959c4.66-8.572-10.26-18.083-10.26-18.083l-149.3-123.23c-0.003-0.001-26.787-9.75-11.231 8.769l18.303 16.915z" fill="#bcb253"/>
      <path id="path4569" stroke="#1f1a17" stroke-width="1.5113" fill="#b98f4d" d="m125.6 25.759c-14.77 23.404-19.86 44.848-11.11 51.813 10.65 8.471 38.6-8.688 62.13-38.25 23.71-29.8 34.16-60.888 23.52-69.359-8.75-6.964-28.69 3.046-48.56 23.158l13.71 10.918s-6.56 19.89-28.05 31.368l-11.64-9.648z"/>
      <path id="path4571" d="m166.84 15.58s-4.35-26.397-1.38-31.798 19.59-14.625 26.35-13.27c6.54 1.16 9.77 5.345 9.34 12.89 0.23 7.7028-10.04 33.188-17.91 41.58-7.25 8.124-13.42 18.255-13.42 18.255l-2.98-27.657z" fill="#987944"/>
      <path id="path1697" d="m153.16 28.35s0.5 28.51-2.32 33.993-24.87 15.858-31.67 14.694c-6.57-0.975-7.75-3.851-7.54-11.405-0.44-7.693 8.75-30.895 16.38-39.505 7.01-8.326 13.24 8.605 13.24 8.605l11.91-6.382z" fill="#987944"/>
      <path id="path4573" stroke="#1f1a17" stroke-width="1.5113" fill="#dededd" d="m147.79-9.8888l17.45 13.505s-3.15 23.375-27.67 32.831l-16.61-13.602s20.14-8.311 26.83-32.734z"/>
      <path id="path4575" stroke="#1f1a17" stroke-width="1.5113" fill="#dededd" d="m-143.48-242.37l17.78 14.09s-0.53 19.09-22.16 26.2l-17.5-14.6s23.44-11.33 21.88-25.69z"/>
      <path id="path4577" stroke="#1f1a17" stroke-width="1.5113" fill="#dededd" d="m-481.44-509.95l24.64 18.07s6.26 13.48-18.26 22.94l-23.51-19.49s-3.92-21.28 17.13-21.52z"/>
      <path id="path4579" d="m-467.95-474.48c-2.54 2.23-1.13 1.42-6.27 3.51l-22.23-17.69s-1.62-6.7 1.15-12.61 0.67 4.01 2.19 5.99c1.94 1.93 25.16 20.8 25.16 20.8z" fill="#c2c1c1"/>
      <path id="path4581" d="m-153.84-220.92l14.25 11.71s-2.96 2.65-8.33 4.9l-14.24-11.71s3.94-1.46 8.32-4.9z" fill="#c2c1c1"/>
      <path id="path4731" d="m152.93 23.938c-3.81 4.306-7.25 8.138-14.89 10.942l-14.42-11.482s6.55-2.896 14.41-11.319l14.9 11.859z" fill="#b6b5b4"/>
      <path id="path8490" stroke="#1f1a17" stroke-width="1.5113" fill="#f00" d="m21.276-111l3.762 2.47c-0.574 1.01-2.831 18.579-26.532 28.769-0.1315 0.057-0.8157-0.954-2.9557-2.619 0 0 29.745-19.15 25.726-28.62z"/>
      <path id="path1691" d="m194.47 58.188l175.05 149.23s21.87 18.45 17.24 23.31c-4.3 4.82-23.43-9.91-23.43-9.91l-179.5-151.88c0 0.003 1.24-14.48 10.64-10.752z" fill="#bcb253"/>
      <path id="path4936" style="color:#000000" d="m295.43 193.34c-6.37 2.94-10.25 9.46-16.61 12.49-6.24 5.42-10.86 12.52-15.31 19.43-3.89 7.01-7.43 14.3-11.99 20.88-7.28 5.72-8.94 15.19-10.13 23.82-1.93 9.04-5.11 17.94-4.01 27.35 0.71 7.88-0.19 16.07 1.9 23.71 3.57 7.62 2.99 17.93 11.18 22.67 5.35 4.71 14.91 5.11 16.73 13.14 0.24 3.31 7.05 9.17 4.3 2.05-1.37-6.09-4.72-11.31-8.81-15.93-7.15-10.56-5.07-23.7-5.04-35.7-0.08-8.62 4.78-16.08 9.4-22.95 4.73-5.36 9.25-10.87 13.96-16.21 5.42-5.8 13.14-9.21 21.13-8.51 8.08 0.17 16.8 1.14 23.09-5.03 6.36-7.03 2.99-16.73 3.86-25.15-0.61-7.06 4-12.52 7.29-18.2 2.82-6.63 8.28-12.4 11.23-18.46-4.5 5.17-7.68 12.12-14.57 14.6-7.63 3.36-11.55 12.94-20.2 13.95-6.38 1.02-14.26 3.77-19.23-2.27-7.37-5.88-5.25-16.28-1.6-23.46 1.06-0.87 2.27-1.51 3.43-2.22z" fill-rule="evenodd" stroke="#d3271e" stroke-width="1px" fill="url(#radialGradient2430)"/>
      <path id="path8503" stroke="#1f1a17" stroke-width=".93644" fill="#b6c3cd" d="m446.53 184.66s-10.91-4.07-12.6-5.44c-1.7-1.36-16.08-12.35-28.58-11.59-12.72 0.7-24.46-10.69-25.91-10.41-1.59 0.09-22.32 1.61-19.83 3.33 2.49 1.71-3.54 7.74-3.54 7.74s9.26 14.25 6.71 15.84c-2.32 1.65-4.42 15.37-21.9 8.26l-11.96-2.91s-7.86 35.06-1.03 41.63c6.91 6.44 28.22 35.74 34.86 36.56 0 0 51.66 12.91 50.41 10.86 0 0 38.37-17.77 48.92-23.12 0 0 1.33-33.42 3.19-33.12 1.95 0.15-18.74-37.63-18.74-37.63z"/>
      <path id="path8525" style="color:#000000" fill="#98a2a8" d="m387.7 255.2s66.25-8.02 69.7-2.35-36.13 7.27-53.39 10.39c-16.39 3.12-24.15-3.88-37.09-9.55-14.67-5.39-32.18-27.77-30.46-38.54 0.87-10.21 13.76 12.94 13.76 12.94l37.48 27.11z"/>
      <path id="path9318" style="color:#000000" fill="#98a2a8" d="m410.84 229.16s15.39 3.62 18.84 9.29 38.63 4.21 21.38 7.32c-16.4 3.12-45-7.56-57.94-13.22-14.66-5.39-11.34-24.1-9.62-34.87 0.87-10.2 10.08 25.81 10.08 25.81l17.26 5.67z"/>
      <path id="path9320" stroke="#1f1a17" stroke-width=".93644" fill="#b6c3cd" d="m295.51 70.645s-10.7-5.095-11.85-6.937c-3.19-5.106-12.34-18.341-25.58-28.064-8.23-7.531-18.47-15.929-19.93-15.65-1.59 0.088-40.62-7.761-38.13-6.046s-8.87 10.645-8.87 10.645-11.97 18.414-14.52 20.011c-2.32 1.651-1.36 26.883-18.84 19.776l-17.81 13.44s11.35 48.42 18.17 54.99c6.91 6.44 28.23 17.77 34.87 18.6 0 0 43.42-2.82 42.17-4.87 0 0 15.91-17.02 26.46-22.37 0 0 25.29-31.17 27.15-30.876 1.94 0.157 6.71-22.649 6.71-22.649z"/>
      <path id="path9322" style="color:#000000" fill="#98a2a8" d="m208.62 47.225s1.84-21.764 8.42-22.653 6.48 4.83 2.42 21.886c-3.72 16.267-8 18.254-18.38 27.837-15.3 6.786-16.76 21.477-26.55 11.289-9-9.783 21.86-17.894 21.86-17.894l12.23-20.465z"/>
      <path id="path9324" style="color:#000000" fill="#98a2a8" d="m177.62 121.63s13.87 7.57 15.7 13.95 36.12 14.31 18.66 12.74c-16.63-1.35-41.37-19.23-52.35-28.13-12.71-9.08-4.54-26.241-0.02-36.166 3.54-9.608 2.87 27.556 2.87 27.556l15.14 10.05z"/>
      <path id="path2574" stroke="#1f1a17" stroke-width="1.5113" fill="#f00" d="m-235.73-315.41l4.14 3.42c-0.58 1.01 0 11.01-23.7 21.2-0.13 0.06-0.81-0.95-2.95-2.62 0 0 26.52-12.53 22.51-22z"/>
      <path id="path2576" stroke="#1f1a17" stroke-width="1.5113" fill="#f00" d="m-373.58-424.84l3.95 2.48c-0.58 1 0.92 8.57-22.78 18.76-0.14 0.06-0.82-0.95-2.96-2.62 0 0 25.81-9.15 21.79-18.62z"/>
      <path id="path16049" style="color:#000000" d="m-94.879-383.07c-16.111 2.58-20.341-22.15-37.051-15.07-12.79 3.06-21.5 13.41-30.19 22.75-8.73 11.2-20.28 17.37-27.04 30.09-1.01 14.02-14.08 22.99-9.52 37.73 7.84 6.15 11.31 18.59 24.5 14.29 15.94 5.71 27.68-5.78 42.88-5.65 18.29 2.72-1.95 18.71-1.88 28.88-3.46 13.64-20.97 15.83-28.42 27.01-12.54 7.32-18.85 20.03-34.38 23.23-6.52 3.82-27.25 6.6-25.73-1.83 12.98-3.93 25.8-7.97 34.21-19.46 10.82-12.9-5.83-24.33-16.84-28.26-12.78 3.65-29.67-2.46-40.58 7.14-11.84 8.84-24.46 12.2-38.97 12.27-12.84 4.14-26.99 4.78-40.11 8.58-6.1-8.78-25.32-18.73-21.42 0.84-0.83 19.88 20.16 26.41 30.61 39.11 5.87 11.24-19.85 4.55-23.71-2.07-9.4-9.14-17.05-19.81-25.58-29.66-6.55-13.21-12.09-28.2-11.46-43.18-2.63-15.55 10.26-36.41 26.28-22.31 10.35 10.56 23.59 20.92 39.65 17.29 14.61 1.57 31.55 0.6 36.46-15.67 8.9-5.07 16.29-19.99-0.38-16.66-14.24-3.23-24.29-16.76-29.8-29.21-2.37-11.93 5.35-38.94-14.86-35.55-6.36 12.81-0.83 31.82-2.75 47-2.03 16.88-7.5-6.6-11.72-11.06 2.18-15.17-1.46-33.15 8.61-45.6 0.91-17.04 22.65-15.95 26.32-30.73 16.56-13.57 22.5 15.08 14.98 24.7 4.74 12.81 0.34 30.18 11.21 41.25 11.19 5.75 28.02 22.78 38.8 7.79 2.18-11.15 14.31-14.24 16.39-26.09 6.42-13.08 23.72-11.94 28.67-26.41-1.13-17.13 17.04-21.92 27.28-31.43 12.16-7.36 28.8-12.42 28.49-28.78 13.67-10.09 2.14-28.69 10.29-41.59-1.17-7.07 4.07-18.03 7.53-5.72 8.33 11.17 9.62 25.92 18.517 35.37 4.061 13.59-8.527 20.75-9.227 32.6-9.7 9.8-2.03 29.58 3.2 41.79 1.81 4.41 20.817 8.26 6.741 12.28z" fill-rule="evenodd" stroke="#d3271e" stroke-width="1px" fill="#f00"/>
      <path id="path1402" style="color:#000000" d="m-94.879-383.07c-16.111 2.58-20.341-22.15-37.051-15.07-12.79 3.06-21.5 13.41-30.19 22.75-8.73 11.2-20.28 17.37-27.04 30.09-1.01 14.02-14.08 22.99-9.52 37.73 7.84 6.15 11.31 18.59 24.5 14.29 15.94 5.71 27.68-5.78 42.88-5.65 18.29 2.72-1.95 18.71-1.88 28.88-3.46 13.64-20.97 15.83-28.42 27.01-12.54 7.32-18.85 20.03-34.38 23.23-6.52 3.82-27.25 6.6-25.73-1.83 12.98-3.93 25.8-7.97 34.21-19.46 10.82-12.9-5.83-24.33-16.84-28.26-12.78 3.65-29.67-2.46-40.58 7.14-11.84 8.84-24.46 12.2-38.97 12.27-12.84 4.14-26.99 4.78-40.11 8.58-6.1-8.78-25.32-18.73-21.42 0.84-0.83 19.88 20.16 26.41 30.61 39.11 5.87 11.24-19.85 4.55-23.71-2.07-9.4-9.14-17.05-19.81-25.58-29.66-6.55-13.21-12.09-28.2-11.46-43.18-2.63-15.55 10.26-36.41 26.28-22.31 10.35 10.56 23.59 20.92 39.65 17.29 14.61 1.57 31.55 0.6 36.46-15.67 8.9-5.07 16.29-19.99-0.38-16.66-14.24-3.23-24.29-16.76-29.8-29.21-2.37-11.93 5.35-38.94-14.86-35.55-6.36 12.81-0.83 31.82-2.75 47-2.03 16.88-7.5-6.6-11.72-11.06 2.18-15.17-1.46-33.15 8.61-45.6 0.91-17.04 22.65-15.95 26.32-30.73 16.56-13.57 22.5 15.08 14.98 24.7 4.74 12.81 0.34 30.18 11.21 41.25 11.19 5.75 28.02 22.78 38.8 7.79 2.18-11.15 14.31-14.24 16.39-26.09 6.42-13.08 23.72-11.94 28.67-26.41-1.13-17.13 17.04-21.92 27.28-31.43 12.16-7.36 28.8-12.42 28.49-28.78 13.67-10.09 2.14-28.69 10.29-41.59-1.17-7.07 4.07-18.03 7.53-5.72 8.33 11.17 9.62 25.92 18.517 35.37 4.061 13.59-8.527 20.75-9.227 32.6-9.7 9.8-2.03 29.58 3.2 41.79 1.81 4.41 20.817 8.26 6.741 12.28z" fill-rule="evenodd" stroke="#d3271e" stroke-width="1px" fill="url(#radialGradient2418)"/>
      <path id="path3162" style="color:#000000" d="m-137.05-582.22c16.07 15.14 33.68 28.96 51.151 42.6 17.788 11.58 32.937 25.72 50.114 37.84 19.623 13.02 43.752 20.37 55.121 42.05 17.063 15.19 3.616 42.9 20.207 56.13 17.576 8.25 19.556 29.63 23.271 43.04-7.318-3.55-27.634-8.04-20.293 8.57 21.393 4.93 44.497 1.69 57.659-17.91 10.18-17.64-32.805-17.87-17.556-35.52 12.456-19.08-2.533-36.35-5.308-55.33 0.458-20.3-3.657-42.43 10.208-59.41 6.613-21.86 25.726-35.79 34.956-56.61 16.28-18.45 14.34-43.37 18.53-65.88 0.62-19.25 11.04-35.47 7.76-55.12 6.51-31.41 1.61-63.67 1.73-95.49-9.19-15.48-8.9-36.37-18.88-49.46-7.87 18.8 6.99 39.49 3.68 59.61 1.62 21.67 5.7 43.15 4.08 65.13 3.5 20.82-10.83 37.3-11.03 57.36-3.08 18.83-19.13 12.8-17.58-3.77-15.899-19.64-2.53 25.75-13.855 30.31 2.679 19.88-16.852 32.07-28.173 46.14-12.88 14.08 1.265 35.81-10.841 51.42 3.082 17.3-15.857 48.64-34.399 32-19.725-9.56-31.306-27.54-41.721-45.03-14.068-15.82-38.961-13.49-53.905-28.18-15.532-12.36-28.476-30.37-28.076-51.06-16.46-1.85 4.474 46.51-18.18 26.38-18.5-14.81-33.16-34.36-46.07-54.13-9.13-23.85-27.87-43.01-33.43-68.18-7.65-19.86-19.79-39.23-23.89-59.75-2.19-16.54-3.11-34.22-6.74-50.08-12.14 15.6-5.8 41.95 1.06 59.65 3.14 22.73 15.9 42.92 17.73 66.12 10.58 19.17 21.52 38.45 29.8 59.19 5.96 18.93 18.56 35.33 28.99 52.26 4.64 4.84 8.3 11.75 13.88 15.11z" fill-rule="evenodd" stroke="#d3271e" stroke-width="1px" fill="url(#radialGradient2415)"/>
      <path id="path3160" style="color:#000000" d="m197.89-486.11c6.6 5.91 7.84 20.27 0.34 26.21-4.22 8.55-3.58 19.57 5.23 24.14 0.22 6.48-2.14 17.33 6.72 17.26 1.71 10.04 4.14 20.24 10.93 28.27 7.9 5.53 10.64 15.43 18.44 21.24 6.52 9.47 14.14 18.2 19.32 28.58 3.88 8.76 7.97 17.34 13.83 24.87 1.61 9.51 0.11 21.29 6.71 28.86 3.21 9.82 3.1 22.1 0.16 32.37-4.59 7.89-11.02 14.59-12.8 24.22-8.09 7.27-21.2 10.74-31.39 6.92-8.18-6.03-17.17-10.95-24.75-17.64-7.59-7.8-16.63-15.55-19.04-26.67-2.68-14.34-13.04-25.34-20.45-37.36-7.16-7.91-17.4-11.24-26.99-14.89-8.88-12.67 12.79-10.38 19.96-7.91 10.12 4.89 14.77 16.5 22.58 24.41 6.71 8.09 14.41 16.68 14.51 27.87 4.24 10.87 11.58 20.57 19.9 28.71 6.52 8.36 16.63 10.61 26.61 11.81 11.74 1.66 19.5-10.82 22.43-20.79 1.13-12.21-1.16-24.04-4.87-35.63-2.24-12.62-11.28-22.23-17.19-33.12-4.23-10.71-7.89-22.15-17.51-29.31-6.4-8.74-13.41-17.2-17.76-27.29-5.31-10.55-13.29-19.54-17.84-30.41-1.75-11.59-8.67-22.42-6.97-34.52 1.33-9.64-3.49-22.2 4.73-29.45 3.88-2.53 1.89-8.91 5.16-10.75z" fill-rule="evenodd" stroke="#d3271e" stroke-width="1px" fill="url(#radialGradient2412)"/>
      <path id="path3156" style="color:#000000" d="m-90.41-521.55c5.345 4.37 9.231 10.08 13.574 15.35 5.839 3.56 8.188 10.57 14.783 13.25 4.83 3.02 9.54 6.26 14.6 8.77 6.745 1.88 11.464 7.78 18.274 9.79 7.556 3.92 15.541 7.45 22.15 12.87 5.0005 5.56 8.1494 12.28 10.533 19.27 4.2357 5.52 5.2443 12.33 8.14 18.61 1.306 7.95 8.947 12.2 12.635 18.77 3.803 5.46 5.947 11.63 5.122 18.6 0.58 5.29 1.736 11.84-2.278 16.11-7.855 4.77-11.331-4.63-14.899-9.71-4.5561-5.66-10.052-10.38-15.592-15.01-5.5446-3.56-10.399-8.01-16.608-10.48-4.791-4.42-9.467-8.97-14.14-13.49-4.015-5.47-10.589-8.55-13.693-14.84-3.03-6.88-14.85-2.83-14.365-12.23-1.073-9.76 16.318-7.14 15.092 2.03 2.885 5.47 9.027 7.33 13.346 11.35 5.212 4.31 11.4 7.22 17.657 9.8 4.47 1.51 15.045 4.98 16.651-0.62-1.8135-6.72-8.5913-11.88-13.757-16.59-7.006-4.81-11.632-12.6-19.577-16.11-7.385-3.92-13.298-9.79-19.292-15.5-5.691-3.11-10.004-7.86-15.049-11.8-5.896-5.11-11.091-11.28-17.221-16.13-3.596-5.96-11.853-10.72-9.89-18.64 0.178-1.4 1.91-5.13 3.804-3.42z" fill-rule="evenodd" stroke="#d3271e" stroke-width="1px" fill="url(#radialGradient2409)"/>
      <path id="path3154" style="color:#000000" d="m-68.603-392.36c-0.675 5.67-5.294 18.04 4.537 16.79 3.888 0.54 2.586 5.95 7.338 5.52 0.646 5.87 0.782 11.74 6.162 15.46 2.465 8.53 1.433 17.74 1.927 26.55-0.15 8.96 0.375 17.95-0.454 26.88-10.344 3.67-3.11 15.63-8.621 21.78-6.724 7.94-0.971 19.91-8.868 27.16-2.687 7.53-2.508 16.49 2.094 23.18 2.527 7.53 4.471 14.85 10.877 19.72 5.324 4.92 8.404 14.37 16.839 14.39 7.67 0.49 15.261 0.23 22.944 0.03 7.2026-2.1 11.052-9.52 16.417-14.3 3.3985-5.24 2.673-12.06 8.906-15.44 0.52-8.36-1.7218-16.97 1.426-25.07-0.569-6.2 1.895-9.55 3.936-14.59 0.634-7.88 0.258-15.99 1.952-23.75-0.49-7.48 7.764-11.96 7.233-19.77-1.391-6.26-10.486-5.29-8.043 1.64 0.485 6.69-10.098 5.63-7.374 13.51 1.679 7.43-1.0757 13.77-2.624 20.33 0.7904 8.61-6.2723 15.38-5.5761 23.95-1.2905 6.69 3.3216 17.01-3.9021 20.82-0.6347 4.11-1.1686 8.12-6.2661 8.2-0.1549 6.61-4.5007 11.51-11.645 11.32-7.213-0.95-16.545 2.48-22.223-2.65-4.089-7.13-12.684-11.42-13.037-20.47-2.357-8.61 1.723-17.67 3.295-25.94 6.16-5.02 3.028-14.86 4.413-22.12 8.382-4.89 6.357-15.02 7.38-22.96 5.433-4.52 5.225-10.85 5.608-17.26 0.549-7.92 1.82-16.44-0.856-24.05-3.085-8.36-5.146-17.4-11.476-23.96-1.551-8.04-8.394-12.81-11.644-19.35-1.765-2.31-8.617-12.12-10.675-5.55z" fill-rule="evenodd" stroke="#d3271e" stroke-width="1px" fill="url(#radialGradient2406)"/>
      <path id="path3150" style="color:#000000" d="m-1.6995-357.91c-7.0267 5.65 8.1888 6.43 11.395 9.63 6.5035 2.41 8.3505 10.84 1.6875 14.51-3.4259 3.66-6.0153 8.09-9.3114 11.94-0.5532 4.37-8.1806 2.11-6.8098 8.49-5.3058 0.24-3.4867 7.23-9.7668 7.59-7.185 6.08 9.4172 8.03 11.93 4.74-0.5109-6.34 9.0323-4.05 8.0874-10.41 6.4896 1.25 4.8246-8.82 11.02-9.77 1.401-8.74 11.136-6.77 17.179-4.18 8.077 0.57 1.884 11.9 3.839 17.73-1.432 5.71 2.256 15.19-4.384 17.81-5.284 3.6-1.788 12.51-2.485 18.24 2.711 7.72 10.616 0.97 7.671-5.05 2.317-5.98 7.462-11.03 5.781-18.47-0.165-7 10.636-7.2 10.52-15.2 0.172-6.93 11.839-2.57 16.878-3.04 4.41 6.07 5.013 13.13 5.014 20.77 0.548 7.14-1.66 15.21 6.484 18.46 4.39 3.5-1.208 16.79 7.719 11.82 3.012-5.88-1.264-13.04 0.221-19.57 0.976-9.93-0.601-20.14 0.827-30.01 5.125-5.08 12.674-0.7 18.844-2.35 7.26-1.51 2.98 9.69 10.74 9.17-0.45 6.87 9 4.11 8.24 11.09 7.01 6.16 11.53-4.28 5.85-9.22-5.58-3.73-5.16-10.93-11.53-12.99-0.58-5.75-9.41-6.43-6.28-13.19-4.09-8.62 7.81-11.65 14.28-10.3 8.85 0.52 17.61-1.12 26.43-0.61 5.9 3.41 17.07-4.92 5.08-4.67-8.49 0.69-11.65-9.79-19.87-7.9-9.23 0.26-10.69-15.78-0.18-13.41 1.41-2.92 0.85-8.15 6.63-6.5 3.13-7.11-10.11-6.43-15.05-6.16-7.76 0.28-10.76 8.48-10.07 15.19 1.21 7.32-7.68 6.22-11.34 9.87-5.82 1.02-15.384-2.41-18.563 3.04 0.266 4.5-5.101 6.32-6.53 10.02-6.313-2.14-6.931 7.86-12.185 3.66-8.856-1.69-3.899 12.33-12.822 10.18-8.653 0.77-12.088-9.47-20.411-10.09-5.288 2.51-17.065 3.49-14.638-5.66-2.367-6.66-8.038-13.35-15.011-15.6-4.6342-0.55-11.028-1.65-15.11 0.4z" fill-rule="evenodd" stroke="#d3271e" stroke-width="1px" fill="url(#radialGradient2403)"/>
      <path id="path3152" style="color:#000000" d="m68.197-276.21c-9.118 1.25-3.978 13.5-5.028 19.74 0.298 6.85 8.222 10.37 7.69 18.12 1.454 10.71-0.016 21.57 0.2 32.34-1.439 6.9-8.469 11.44-9.4 18.66 1.73 7.29-5.493 11.55-5.295 18.41-0.307 5.77-7.814 5.78-7.162 11.81-8.752-0.88-4.927 10.75 2.176 7.86 7.157-1.06 9.841-9.46 15.977-12.81 3.364-6.14 0.541-14.54 6.758-19.18 5.766-4.4 5.249-12.32 10.378-17.14 3.226-6.06 8.941-9.31 14.604-12.82 6.485-4.93 15.325-1.65 22.865-2.58 7.12-0.38 14.43-0.27 20.35 4.33 4.45 4.41 10.13 7.07 14.91 11.03 5.87 5.16 13.95 7.87 21.56 8.35 7.6 1.12 4-6.7-0.04-8.56-3.13-5.26-10.09-7.01-12.97-12.7-3.94-5.4-8.7-9.99-13.76-14.38-4.78-5.36-9.12-11.04-13.88-16.31-5.31-4.55-3.36-12.41-9.1-16.59 0.49-7.35-7.24-11.77-5.23-19.65 0.29-5.62-4.19-14.69-10.84-11.68-7.99 3.47 2.65 11.28 3.8 16.49 0.97 7.34-0.4 14.92 3.85 21.45 1.31 5.52 2.86 17.58-5.68 17.22-7.61 0.42-15.34 0.52-22.953 0.35-7.101-1.49-9.453-8.14-14.713-12.06-1.583-6.33 2.949-16.41-6.957-17.08-1.603-3.41 3.27-11.74-2.11-12.62z" fill-rule="evenodd" stroke="#d3271e" stroke-width="1px" fill="url(#radialGradient2400)"/>
      <path id="path3158" style="color:#000000" d="m146.56-593.06c3.94 5.41 1.02 14.78 1.9 21.68 1.87 7.35-10.56 7.89-6.59 16.26 1.32 5.19-0.64 9.05-4.14 12.4 2.62 8.02-2.17 13.63-6.54 19.42-0.13 8.94-10.51 12.87-7.78 22.43-0.07 5.37-8.65 6.8-5.38 13.55-0.1 7.25-10.83 8.18-7.23 16.55 1.21 6.59-2.24 15.23 0.76 20.35 10.15 2.61 13.92-8.3 15.56-15.83 6.17-4.7 12.31-11.03 12.59-19.17 4.88-6.8 0.12-17.87 9.13-21.8 4.21-5.47 0.52-13.81 7.14-18.47 1.95-2.27 6.06-14.58 6.6-5.25 2.35 8.13 1.76 17.26-6.1 21.78-0.38 6.28-0.02 12.61-6.78 15.59-0.49 7.69 1.81 16.69-5.31 22.14-3.99 5.24 1.99 13.49-4.8 16.51-2.61 7.58-1.86 16.73-6.75 23.18-4.78 5.63 0.68 17.46-9.1 19.74-0.98 7.21-8.39 11.94-15.57 11.04-7-1.41-9.487-9.1-11.233-15.14-1.371-9.15 2.683-17.9 1.695-27.09 0.641-6.95-3.628-12.9-8.368-17.5-4.439-5.91-1.27-14.04-2.284-20.88-0.529-9.02 9.768-12.75 14.2-19.38 5.69-6.24 9.7-13.63 15.33-19.88 2.88-8.26 7.91-16.05 8.13-25.06 1.53-7.7 5.21-14.41 7.15-22 4.45-6 10.48-11.99 11.11-19.84-0.2-2.19 0.14-4.72 2.66-5.33z" fill-rule="evenodd" stroke="#d3271e" stroke-width="1px" fill="url(#radialGradient2397)"/>
      <path id="path4918" style="color:#000000" d="m70.493-856.63c-0.938 11.38 0.364 25.94 11.251 31.82 11.627 4.12 16.467-6.41 22.896-12.95 9.86 2.3 2.47 20.25 4.38 29.28-7.2 9.12-21.901 11.64-28.587 23.09-9.871 6.2-15.022 17.23-24.847 23.42-14.595 6.87-14.157 23.42-18.412 36.6-0.787 12.24-12.421 20.2-8.42 33.65-2.705 12.36-6.262 23.94-3.726 37.08-1.644 13.56 1.775 26.01 6.969 37.89 0.962 10.93 1.783 21.79 2.956 32.68 0.823 11.44 0.874 22.94 2.637 34.22 4.621 9.94-2.923 28.5-14.15 17.52-1.685-12.04-8.042 7.67-11.649-4.62-6.2375-5.47-7.3619-15.79 2.363-7.37 10.783-4.91 11.47-21.02 2.886-28.66-5.611-9.42-14.142-17.38-15.035-28.98-2.4586-11.57-11.761-20.06-12.835-32.14-2.142-12.56-10.541-22.35-13.335-34.7-4.189-12.46-2.839-26.4 1.197-38.6 0.049 12.84 7.129 24.49 10.404 36.78 3.8057 9.16 27.768 16.89 25.856 1.5-0.089-12.07-0.246-24.07-1.984-36.03-2.0787-11.49-11.346-21.05-10.808-33.32 0.08843-9.86-4.2528-20.86 1.206-29.92 9.978-0.01 12.656 19.08 26.025 13.44 4.355-11.7 7.438-24.85 9.218-37.54-0.998-13.18 11.523-21.56 8.968-35.41 5.504-10.89 14.359-18.82 17.145-31.07 3.99-4.11 11.135-6.46 7.431 2.34z" fill-rule="evenodd" stroke="#d3271e" stroke-width="1px" fill="url(#radialGradient2394)"/>
      <path id="path3170" style="color:#000000" d="m-58.255-627.98c-7.837-5.52-9.391-15.61-16.477-21.59-1.688-8.34-1.077-16.55-7.29-22.98-0.611-9.11-6.138-17.1-5.402-26.47 0.227-10.33-0.235-20.83 0.81-31.06 7.947-4.76 3.829-15.08 9.612-21.8 4.501-9.03 15.129-12.9 17.397-22.76 6.608-6.38 16.184-7.63 18.817-17.08 5.857-1.47 9.106-5.23 11.162-10.74 8.773-6.16 11.348 12.6 1.081 10.53-6.035 6.74-12.093 13.18-18.239 19.67-7.54 5.52-13.089 13.47-19.193 20.49-6.484 4.8-11.761 13.25-9.833 22.23 2.988 9.95-7.146 18.6-0.81 27.28 3.971 7.42-1.238 17.06 4.008 23.89 6.828 6.94 2.38 18.39 10.576 24.73 6.426 6.33 6.747 16.01 13.051 22.34 2.905 8.63 12.135 12.05 16.605 19.65 3.577 8.34 9.039 16.67 18.149 19.32 5.6179 5.87 7.1496 15.67 15.346 19.49 2.6265 6.01 8.2588 18.85-4.0435 13.88-5.1764-8.56-10.094-16.47-16.642-24.24-6.171-6.49-13.421-11.97-19.509-18.86-4.11-8.51-10.935-16.06-18.095-22.41l-0.659-1.58-0.422-1.93z" fill-rule="evenodd" stroke="#d3271e" stroke-width="1px" fill="url(#radialGradient2391)"/>
      <path id="path3164" style="color:#000000" d="m112.04-787.73c3.99 5.32 2.54 12.57 3.37 18.82 1.73 7.48-7.43 9.65-11.98 13.46-7.228 2.91-7.385 11.64-11.998 16.94-3.293 6.68-10.58 10.92-11.676 18.78-2.823 6.16-4.425 12.98-8.547 18.33-0.866 5.83 1.864 12.84-2.623 17.61-4.67 6.3-6.506 14.18-7.599 21.81-3.151 6.7-3.461 14.11-3.182 21.39-0.702 8.85-0.138 17.76-0.657 26.61-0.089 6.94-7.269 5.11-4.938-1.16 0.109-5.73 0.324-11.51-1.992-16.88-3.234-5.77-5.756-11.78-5.934-18.53 0.268-7.77-0.244-15.61 1.003-23.32 0.028-7.69 0.124-15.41 0.897-23.05 3.172-4.69 7.879-8.87 8.567-14.87-0.597-6.89 2.083-13.41 2.408-20.22 2.093-6.24 6.072-11.82 11.406-15.7 3.635-6.7 10.511-11.17 13.555-18.12-0.158-8.07 7.516-11.1 11.788-16.62 2.845-6.36 10.882-7.1 16.892-5.75l1.24 0.47z" fill-rule="evenodd" stroke="#d3271e" stroke-width="1px" fill="url(#radialGradient2388)"/>
      <path id="path4922" style="color:#000000" d="m211.72-558.62c-1.66-0.76-1.49 2.36-1.66 3.45-0.28 1.71 0.61 3.52 2.31 4.08 1.52 0.93 3.76 1.3 4.56 3.04 0.47 2.72-0.13 5.52 0.3 8.26 0.04 2.5 3.26 1.51 4.87 1.95 0.99 1.59 1.21 3.54 1.87 5.28 0.28 1.67-0.15 3.84 1.65 4.83 1.3 0.38 3.24 0.29 2.85 2.28-0.1 1.91 2.28 2.14 3.69 2.29 1.95 0.4 3.74-0.52 5.23-1.69 1.99-0.9 1.09-3.51 0.74-5.16-0.62-2.21-2.46-3.76-3.84-5.5-2.71-2.56-5.43-5.1-8.23-7.56-1.66-1.49-3.31-2.99-4.96-4.49-0.91-1.73-0.18-3.79-0.35-5.65 0.17-1.85-1.3-3.09-2.51-4.23-1.27-0.97-2.43-2.92-4.26-2.48-0.85 0.24-1.58 0.76-2.26 1.3z" fill-rule="evenodd" stroke="#d3271e" stroke-width="1px" fill="url(#radialGradient2385)"/>
      <path id="path3168" style="color:#000000" d="m-15.581-887.54c-1.462 4.16-0.435 8.54-0.405 12.8-0.126 2.85 0.731 5.51 1.948 8.05 0.739 4.33 0.166 8.77 0.347 13.15 0.015 4.16-0.461 8.3-0.27 12.46-0.502 3.64-0.587 7.29-0.802 10.92-1.543 2.64-1.332 6.63-4.198 8.27-0.921 2.52-0.11 5.45 0.4 8.03 1.111 3.19 6.575 3.87 8.461 1.15 2.1523-3.14 1.3579-7.18 1.5409-10.77 0.0479-3.37-0.0911-6.75 0.0692-10.12 1.3172-3.53 6.0687-3.62 7.6855-6.79 0.93249-2.9 0.92264-5.95 0.62312-8.96 0.10267-4.07 0.46924-8.68-2.5165-11.94-1.5878-2.76-4.1033-4.8-5.6498-7.59-1.4361-2.34-0.5582-5.3-0.5671-7.9 0.2711-3.4-0.1415-6.9-1.3083-10.09-1.062-1.96-4.294-3.67-5.358-0.67z" fill-rule="evenodd" stroke="#d3271e" stroke-width="1px" fill="url(#radialGradient2382)"/>
      <path id="path3166" style="color:#000000" d="m-30.166-909.41c0.13 1.64 0.25 3.29 0.659 4.89 0.262 1.41 0.121 2.88 0.498 4.27 0.666 1.25 2.026 1.91 3.205 2.59 1.907 1.16 4.161 1.38 6.308 1.77 1.009-0.01 1.229-1.26 1.365-2.04 0.301-1.84 0.019-3.71-0.561-5.46-0.591-2.1-1.064-4.26-2.177-6.17-0.703-1.52-2.175-2.42-3.316-3.58-1.284-1.12-3.152-1.81-4.812-1.15-1.029 0.44-1.216 1.68-1.366 2.66-0.089 0.75 0.053 1.49 0.197 2.22z" fill-rule="evenodd" stroke="#d3271e" stroke-width="1px" fill="url(#radialGradient2379)"/>
      <path id="path4926" style="color:#000000" d="m721.22-611.12c-7.51-6.51-17.94-12.34-20.23-23-6.2-10.66-15.17-19.27-21.32-29.8-1.23-5.27-0.55-12.62 1.68-3.24 8 8.46 17.24 18.2 29.18 19.98 10.41 1.15 17.6-5.98 13.93-16.53 4-12.42-5.97-17.38-15.55-20.9-7.39-8.62-18.61-11.57-28.17-16.83-6.52-8.05-11.66-18.08-16.33-27.68-0.32-14.45-0.55-29.05 0.13-43.5-0.26-6.99 6.41-12.96 4.89-2.36-0.95 11.63 4.12 20.96 7.69 31.16-0.32 12.66 12.75 16.21 19.58 24.24 8.34 8.15 19.39 12.62 29.83 17.03 9.05 6.25 16.56 16.35 19.78 26.7 1.56 14.55 2.3 29.49-0.76 43.88-1.23 12.28 3.85 24.47 14.31 31.26 10.37 6.39 19.78-2.83 17.19-13.95 1.67-10.39-10.09-18.09-6.47-28.82 4.41-8.51 9.55-18.98 17.55-23.43-5.6 10.19-5.75 21.91-5.41 33.24-2.04 11.64 3.66 21.43 9.42 30.82 6.33 7.88 9.95 17.13 9.59 27.34 0.97 8.81-0.91 16.03-10.09 18.36-6.27 11.2-1.17 24.41-1.23 36.46 1.31 12.05-10.9 18.06-21.3 15.58-10.7 1.05-23.36-5.08-27.32-15.3-3.76-15.18-1.25-31.02-1.96-46.51 0.51-11.75-7.51-21.27-11.43-31.79-3.57-3.48-4.45-8.43-7.18-12.41z" fill-rule="evenodd" stroke="#d3271e" stroke-width="1px" fill="url(#radialGradient2376)"/>
      <path id="path12059" fill-rule="evenodd" fill="#005a6e" d="m510.58-508.92c3.32 2.76 54.76 25.44 54.76 25.44s63.05 99.01 63.05 102.33-23.23 45.36-23.23 45.36l-8.85 28.21-148.24 50.33 7.75-40.37s8.29-10.51 11.06-11.07c2.76-0.55 46.46-79.1 46.46-79.1l21.57-55.31-4.97-38.17-19.36-27.65z"/>
      <path id="path4942" style="color:#000000" d="m148.47 155c-10.2 26.5-49.201 61.04-52.665 75.02 19.255-22.6 55.125-27.85 33.835 9.89-13.63 33.56-24.69 70.78-26.81 107.89-8.806 43.09 26.65-16.35 32.88 24.58 7.05 39.15 0.22 81.34 25.21 115.87 3.72 27.27 49.46 64.92 26.81 14.36-15.28-55.43 53.99-30.97 62.89 4.79 32.05 43.87 62.46 96.81 116.51 116.83 32.12 15.66 14.37-9-6.07-14.05-27.63-15.46-47.15-84.4 2.55-60.96 39.17 17.39 61.41 66.26 107.89 77.24 31.33-3.08-25.87-35.69-21.03-57.94-11.41-48.69 50.42-66.75 87.75-58.25 45.73-5.52 87.42 13.28 131.19 19.16 37.3 16.07 76.85 40.21 96.08 77.88 21.8 38.6 46.31 78.22 43.09 124.17 2.11 56.58-8 116.14-44.14 160.73-23.52 40.85-62.85 69.62-99.99 96.83-32.38 14.76-70.02 36.46-104.72 32.96-34.72 5.1-69.89-9-103.83-16-41.92-10.45-86.49-40.68-87.8-88.06 4.66-31.29 8.42-62.41-4.06-94.12-9.13-19.98-17.35-82.55-18.06-28.44 5.5 23.84 17.93 82.32-2.48 83.96-8.14-20.02-12.42-40.78-24.27-59.36-13.47-25.38-30.08-49.28-38.59-76.63-17.64-29.47-22.26-68.9-4.22-99.21-14.85-4.96-29.36 53.59-20.85 73.14-3.34 18.38 30.33 82.09-7.39 46.67-43.59-28.71-95.14-22.41-144.14-29.11-49.646 3.75-83.182-31.03-115.5-63.29-25.493-28.07-42.269-60.5-61.45-91.94-9.385-14.62 3.123-80.65-12.936-65.61-3.586 46.65 10.91 90.18 36.96 127.98 26.397 33.81 53.388 65.48 88.242 90.55 41.466 25.85 90.234 24.77 132.13 47.12 40.85 16.25 69.93 53.5 94.71 87.32-17.45 12.71-62.61-49.29-44.82-14.32 24.98 29.32 57.95 54.62 94.17 66.66-24.19 11.01-63.47 0.72-68.21-7.79 17.76 36.73 71.86 44.09 88.56 78.53-21.12 15.95-107.6-40.61-57.09 4.93 32.49 18.12 67.02 39.92 104.56 42.82 45.65-15.4 55.34 34 8.12 38.5-15.9 0-72.17-8.6-28.44 9.2 46.62 13.5 99.64 0.6 142.58-21.1 64.72 3.8-45.29 47.3-32.5 46.2 46.06 12.4 95.1-24.9 121.89-61.7 49.39-25.8 16.81 51.3-11.82 57.6 44.61-0.6 65.68-47.1 90.74-78.3-3.72-48.76 68.96-41.97 29.77 1.5-7.27 18.7-40 64.9-3.13 29.3 24.52-27.8 29.94-65.3 46.49-97.71-1.96-37.14 55.35-69.04 38.39-12.54-0.65 20.82-41.45 86.05-2.87 40.48 11.57-29.1 23.98-54.9 28.73-85.93 10.26-23.88-1.46-80.35 25.34-86.72 23.86 10.76 17.16 107.26 29.25 44.93-4.36-38.6-0.83-78.13-9.92-115.97-25.92-17.01-4.65-75.32 18.54-31.08 11.79 33.32 26.71 23.39 15.41-6.53-5.91-32.56-29.17-64.54-57.98-84.11-24.47-14.93-65.39-51.71-12.54-58.5 57.99 2.82-31.61-32.08-50.25-35.93-34.79 12.96-108.74-34.65-42.32-46 25.25 0.34 88.4-5.7 30.18-16.34-49.99-7.51-103.25-9.05-149.44 10.17-49.96-3.43 0.38-42.92 15.85-49.85-50.47-11.96-84.61 46.43-132.77 53.44-38.92 20.76-85.53 21.34-128.65 22.76-44.76 1.52-87.08-17.93-121.94-44.69-33.37-23.99-62.64-54.41-76.6-94.16-25.7-44.61-20.44-100.19-0.64-145.88-2.74-31.95 56.14-70.82 8.62-91.29-8.08 8.19-18.72 16.66-22.99 27.45z" fill-rule="evenodd" stroke="#d3271e" stroke-width="1px" fill="url(#radialGradient2372)"/>
      <path id="path3103" style="color:#000000" d="m125.16 501.86c-11.72-5.76-37.545-17.55-45.694-34.46-4.798-16.18-21.937-47.84-36.869-21-13.651 14.07-9.328 34.45-10.155 52.09 6.769 7.23 8.122 19.29-4.856 12.12-15.835-13.81-32.329-33.89-35.074-55.34 6.7022-30.89-39.781 4.1-36.227-21.79 1.004-28.6-1.981-57.2-1.077-85.7-0.557-15.95-27.995-40.68-37.531-19.74-6.831 18.66-23.977 32.32-31.877 48.01 15.335 11.38 16.049 48.84-11.15 38.42-16.48-8.48-23.42-27.26-33.82-41.9-6.61-15.3-24.9-32.57-12.98-49.46 4.73 10.48 24.35 43.75 39 31.56 11.17-20.68 16.49-44.14 16.47-67.55 1.65-18.52-30.11-20.19-19.6-42.32 3.16-17.28-7.9-29.79-10.69-44.09-18.85 6.44-31.94 23.82-48.52 34.29-4.92 11.79-28.81 14.02-17.51-3.33 8.55-17.65 29.21-24.35 37.8-42.05 11.12-17.76 29.97-19.52 48.93-19.67 9.55-14.3 34.239-14.87 29.158 7.51-6.688 17.03-36.798 29.98-11.228 47.12-0.41 19.8 20.112 10.21 14.174-4.73 14.704-13.76 3.585-32.8 12.945-48.37 3.569-12.37 39.566-10.79 20.365-23.25-13.441-13.07-27.861-24.47-41.394-37.32-12.72 0.13-16.9-15.343-0.74-10.54 18.187 1.09 32.222 16.25 50.905 20.34 14.296 16.24 34.82 27.87 44.932 47.57 11.663 27.72-23.133 15.2-37.835 19.4-16.334 10.39-19.826 31.44-18.432 49.48-4.987 21.12 19.095 26.91 27.046 42.97 10.697 16.38 5.29 39.31 15.878 55.82 1.188 15.9 20.516 42.64 33.045 19.07 19.013-12.5 12.416-36.33 17.154-55.68 0.48-16.02 5.753-33.11 9.697-47.29 0.098-18.81 13.051-31.73 20.673-47.49 11.055-14.71 19.686-32.15 34.62-43.61 6.447-8.96 40.607-12.59 19.917 2.2-17.596 10.63-27.417 30.41-40.324 46-10.29 19.83-9.917 43.3-14.986 64.68-5.047 13.46 7.506 30.73 15.403 11.21 3.075-7.79 18.137-33.62 23.294-17.43-14.108 12.46-9.347 31.89-13.949 48.77 6.755 20-10.804 36.95-4.402 55.24-0.595 20.79 4.44 41.93 16.014 59.08 19.88 16.92 12.21-14.4 18.38-23.85 14.96 8.77 2.88 33.39 16.54 45.39 5.33 13.37 12.71 35.77 19.59 52.95 11.45 5.32 13.09 30.92-3.32 20.44-4.22-9.72-11.79-19.51-21.69-23.77z" fill-rule="evenodd" stroke="#d3271e" stroke-width="1px" fill="url(#radialGradient2368)"/>
      <path id="path3978" style="color:#000000" d="m221.06 156.15c-9.61 9.55-18.82 20.87-26.77 31.9-2.16 15.35-4.5 30.63-11.26 44.86-11.83 14.82-4.77 33.44-11.81 49.53-3.75 25.45-4.54 52.23 5.89 76.32 6.66 14.58 14.48 30.48 28.04 38.89 11.64 9.44 17.72 25.26 32.28 31.63 14.3 9.19 24.13 23.95 39.59 31.25 14.64 10.71 32.67 15.04 49.77 19.79 14.15 1.51 27.21 7.63 41.43 9.17 22.13 1.05 44.44 4.23 66.58 1.68 7.72-1.77 26.32-3.36 26.78-8.66-20.54-0.01-41.27-1.45-61.63 1.46-22.63 0.69-44.06-7.38-64.21-16.83-21.77-7.06-43.94-15.91-59.59-33.38-13.88-10.53-30.18-16.99-42.57-29.74-8.11-11.08-20.29-20.68-22.1-35.01-4.08-17.15-15.56-31.49-18.82-48.98-8.91-19.02 2.32-38.98 4.41-58.11 3.56-17.15 2.25-36.61 13.13-51.35 11.32-10.62 25.31-18.72 32.9-32.88 9.86-9.87-12.92-25.33-22.04-21.54z" fill-rule="evenodd" stroke="#d3271e" stroke-width="1px" fill="url(#radialGradient2365)"/>
      <path id="path4938" style="color:#000000" d="m248.54 197.8c-0.1-2.53-2.67 1.73-3.39 2.62-2.48 3.36-4.33 7.11-6.47 10.68-1.68 2.8-4.18 4.94-6.11 7.53-3.49 5.37-2.65 12.09-2.34 18.15 0.45 4.34 0.36 8.7 0.56 13.04 1.17 0.53 1.91-3.26 2.85-4.29 2.02-3.53 4.25-6.94 6.08-10.58 1.92-3.42 4.75-6.22 6.72-9.59 1.72-3.48 2.03-7.42 3.34-11.03 1.97-3.69 4.93-6.73 7.41-10.07 2.48-3.08 5.33-6.07 6.65-9.86 0.52-2.51-2.29-3.77-4.27-4.27-2.01-0.66-4.27-1.02-6.18 0.13-1.81 1.36-4.78 2.21-5.44 4.39 0.08 1.07 0.56 2.07 0.59 3.15z" fill-rule="evenodd" stroke="#d3271e" stroke-width="1px" fill="url(#radialGradient2362)"/>
      <path id="path3980" style="color:#000000" d="m465.43 537.17c-8.2 22.23 12.89 31.15 31.7 27.94 33.38-0.29 66.83-0.31 99.96 3.98 17.47-0.39 34.85 2.22 49.86 11.78 18.23 12.33 38.54 21.34 56.47 34 16.23 8.91 26.01 21.9 35.31 37.01 11.31 17.36 22.48 33.85 26.56 55.22 10.27 30.41 5.69 62.95 5.36 94.39-5.54 22.17-14.63 43.32-26.07 63.15-9.08 17.86-23.63 32.29-32.35 50.43-13.41 13.98-21.87 31.69-36.06 44.89-8.87 3.85-24.97 22.33-8.03 8.16 18.58-2.12 34.11-11.96 45.08-27.61 19.43-12.13 26.75-34.12 34.42-54.34 13.27-15 23.76-31.76 29.37-51.2 10.67-29.74 20.76-60.76 18.57-92.83 3.43-18.84-13.55-32.66-11.96-51.36-6.84-16.91-12.21-34.66-20.95-50.87-9.59-18.19-20.06-36.45-34.91-50.87-12.89-12.04-25.78-24.4-40.24-34.63-14.76-9.85-29.79-22.6-48.7-21.89-19.61-1.11-39.55-1.36-58.47-7.11-31.96 0.02-64.06-1.19-95.96 0.69-7.06 1.63-15.18 4.41-18.96 11.07z" fill-rule="evenodd" stroke="#d3271e" stroke-width="1px" fill="url(#radialGradient2359)"/>
    </g>
  </g>
  <metadata>
    <rdf:RDF>
      <cc:Work>
        <dc:format>image/svg+xml</dc:format>
        <dc:type rdf:resource="http://purl.org/dc/dcmitype/StillImage"/>
        <cc:license rdf:resource="http://creativecommons.org/licenses/publicdomain/"/>
        <dc:publisher>
          <cc:Agent rdf:about="http://openclipart.org/">
            <dc:title>Openclipart</dc:title>
          </cc:Agent>
        </dc:publisher>
        <dc:title>Kendo Pian Camuno</dc:title>
        <dc:date>2007-03-25T01:58:50</dc:date>
        <dc:description>clip art, clipart, image, media, public domain, sport, sport, svg, </dc:description>
        <dc:source>http://openclipart.org/detail/3663/kendo-pian-camuno-by-simatic</dc:source>
        <dc:creator>
          <cc:Agent>
            <dc:title>simatic</dc:title>
          </cc:Agent>
        </dc:creator>
        <dc:subject>
          <rdf:Bag>
            <rdf:li>clip art</rdf:li>
            <rdf:li>clipart</rdf:li>
            <rdf:li>image</rdf:li>
            <rdf:li>media</rdf:li>
            <rdf:li>public domain</rdf:li>
            <rdf:li>sport</rdf:li>
            <rdf:li>svg</rdf:li>
          </rdf:Bag>
        </dc:subject>
      </cc:Work>
      <cc:License rdf:about="http://creativecommons.org/licenses/publicdomain/">
        <cc:permits rdf:resource="http://creativecommons.org/ns#Reproduction"/>
        <cc:permits rdf:resource="http://creativecommons.org/ns#Distribution"/>
        <cc:permits rdf:resource="http://creativecommons.org/ns#DerivativeWorks"/>
      </cc:License>
    </rdf:RDF>
  </metadata>
</svg>
